<svg width="221" height="167" viewBox="0 0 221 167" fill="none" xmlns="http://www.w3.org/2000/svg">
<path opacity="0.3" d="M57.6929 36.8668C39.0405 43.726 26.4331 50.8437 23.7049 71.8504C21.4056 89.5733 24.4859 124.744 56.8183 130.322C119.734 141.18 178.205 139.672 189.531 109.623C201.137 78.8086 204.723 46.9933 169.481 39.397C144.552 34.023 94.1177 23.4784 57.6929 36.8668Z" fill="#FCC861" fill-opacity="0.51"/>
<path opacity="0.45" d="M104.431 152.198C145.175 152.198 178.205 148.388 178.205 143.688C178.205 138.989 145.175 135.179 104.431 135.179C63.6871 135.179 30.6575 138.989 30.6575 143.688C30.6575 148.388 63.6871 152.198 104.431 152.198Z" fill="#E6E6E6"/>
<path d="M162.457 29.4853H73.6995V139.673H162.457V29.4853Z" fill="#E6E6E6"/>
<path opacity="0.08" d="M162.457 29.4853H73.6995V60.9431H162.457V29.4853Z" fill="black"/>
<path opacity="0.44" d="M152.418 34.2597H83.7434C82.0757 34.2597 80.7236 35.6118 80.7236 37.2795V53.1487C80.7236 54.8165 82.0757 56.1685 83.7434 56.1685H152.418C154.086 56.1685 155.438 54.8165 155.438 53.1487V37.2795C155.438 35.6118 154.086 34.2597 152.418 34.2597Z" fill="white"/>
<path opacity="0.08" d="M97.3462 69.0893H79.7883V81.8891H97.3462V69.0893Z" fill="black"/>
<path opacity="0.08" d="M117.176 69.0893H99.6182V81.8891H117.176V69.0893Z" fill="black"/>
<path opacity="0.08" d="M137.011 69.0893H119.453V81.8891H137.011V69.0893Z" fill="black"/>
<path opacity="0.08" d="M156.846 69.0893H139.288V81.8891H156.846V69.0893Z" fill="black"/>
<path opacity="0.08" d="M97.3462 85.0189H79.7883V97.8187H97.3462V85.0189Z" fill="black"/>
<path opacity="0.08" d="M117.176 85.0189H99.6182V97.8187H117.176V85.0189Z" fill="black"/>
<path opacity="0.08" d="M137.011 85.0189H119.453V97.8187H137.011V85.0189Z" fill="black"/>
<path opacity="0.08" d="M156.846 85.0189H139.288V97.8187H156.846V85.0189Z" fill="black"/>
<path opacity="0.08" d="M97.3462 100.949H79.7883V113.749H97.3462V100.949Z" fill="black"/>
<path opacity="0.08" d="M117.176 100.949H99.6182V113.749H117.176V100.949Z" fill="black"/>
<path opacity="0.08" d="M137.011 100.949H119.453V113.749H137.011V100.949Z" fill="black"/>
<path opacity="0.08" d="M117.176 116.884H79.7883V129.684H117.176V116.884Z" fill="black"/>
<path opacity="0.08" d="M137.011 116.884H119.453V129.684H137.011V116.884Z" fill="black"/>
<path d="M156.846 100.949H139.288V129.678H156.846V100.949Z" fill="#FF9200"/>
<path opacity="0.2" d="M106.879 79.8429C109.819 79.8429 112.203 77.459 112.203 74.5184C112.203 71.5777 109.819 69.1938 106.879 69.1938C103.938 69.1938 101.554 71.5777 101.554 74.5184C101.554 77.459 103.938 79.8429 106.879 79.8429Z" fill="#FFD200"/>
<path opacity="0.08" d="M107.808 81.9441L95.5752 100.096L85.4101 97.8628L75.9326 83.3413V106.306C80.9546 110.531 88.1714 115.498 93.0339 114.051C101.169 111.631 113.127 99.9805 107.808 81.9441Z" fill="black"/>
<path d="M106.879 77.1862C108.352 77.1862 109.546 75.9918 109.546 74.5184C109.546 73.045 108.352 71.8506 106.879 71.8506C105.405 71.8506 104.211 73.045 104.211 74.5184C104.211 75.9918 105.405 77.1862 106.879 77.1862Z" fill="#FFD200"/>
<path d="M47.3901 77.0761C47.3901 77.0761 35.0964 86.3005 41.6475 106.119C48.1987 125.938 62.1977 116.301 62.1977 116.301V100.085L47.3901 77.0761Z" fill="#68E1FD"/>
<path opacity="0.46" d="M47.3901 77.0761C47.3901 77.0761 35.0964 86.3005 41.6475 106.119C48.1987 125.938 62.1977 116.301 62.1977 116.301V100.085L47.3901 77.0761Z" fill="white"/>
<path d="M78.5345 145.597L81.0042 147.528C81.1009 147.602 81.1717 147.705 81.2069 147.822C81.2421 147.938 81.2397 148.063 81.2003 148.178C81.1608 148.294 81.0862 148.394 80.9869 148.465C80.8876 148.535 80.7686 148.573 80.6467 148.573H77.5169C77.0792 148.573 76.6595 148.399 76.35 148.089C76.0406 147.78 75.8667 147.36 75.8667 146.923V145.619L78.5345 145.597Z" fill="#68E1FD"/>
<path d="M52.1591 145.597L49.6893 147.528C49.5927 147.602 49.5219 147.705 49.4867 147.822C49.4515 147.938 49.4538 148.063 49.4933 148.178C49.5328 148.294 49.6074 148.394 49.7067 148.465C49.806 148.535 49.925 148.573 50.0469 148.573H53.1712C53.6089 148.573 54.0286 148.399 54.3381 148.089C54.6475 147.78 54.8214 147.36 54.8214 146.923V145.619L52.1591 145.597Z" fill="#68E1FD"/>
<path d="M62.1975 74.4964L62.6211 67.4996C62.6211 67.4996 63.1216 62.9947 65.3713 63.8143C67.6211 64.6338 69.9753 69.0618 68.7597 70.4149C68.1051 71.1575 67.412 70.7065 66.5595 70.789C65.8004 70.8605 65.9324 70.745 65.9324 71.5096V74.1828L62.1975 74.4964Z" fill="#F4A28C"/>
<path d="M59.9535 74.1773C59.9535 74.1773 45.905 72.9232 44.0678 82.4282C42.2306 91.9332 55.3055 109.816 55.3055 109.816L73.5234 109.084C73.5234 109.084 101.829 69.3313 59.9535 74.1773Z" fill="#68E1FD"/>
<path opacity="0.08" d="M72.3461 78.0056C72.3461 78.0056 61.4495 84.6063 66.796 94.5953C70.2339 101.02 61.4495 109.557 61.4495 109.557L73.5507 109.084C73.5507 109.084 77.9512 102.527 78.8588 99.9749C79.7664 97.4226 72.3461 78.0056 72.3461 78.0056Z" fill="black"/>
<path d="M55.3054 109.793L51.1689 145.597L55.2174 145.602L64.2603 116.862L74.4474 145.608H79.0789L73.5233 109.084L55.3054 109.793Z" fill="#24285B"/>
<path d="M62.1976 71.614H64.3978C64.3978 71.614 64.8763 67.5656 66.4275 66.79C67.9787 66.0144 69.5243 64.5513 68.1492 63.2146C66.774 61.878 64.8103 60.3268 62.5166 61.922C60.2229 63.5172 59.4033 67.3456 62.1976 71.614Z" fill="#24285B"/>
<path d="M71.2627 80.2666C71.4618 79.3323 71.9007 78.4659 72.5364 77.7528C73.172 77.0397 73.9824 76.5044 74.8877 76.1997C75.7931 75.895 76.7622 75.8312 77.6997 76.0148C78.6371 76.1984 79.5106 76.623 80.2341 77.2468C81.9723 78.7374 83.694 81.0256 84.8931 84.557C86.226 88.5905 88.241 92.3655 90.8502 95.7177C91.1874 96.1387 91.6247 96.4686 92.1221 96.6772C92.6196 96.8857 93.1614 96.9663 93.698 96.9116C94.2346 96.8569 94.749 96.6686 95.1941 96.364C95.6393 96.0594 96.001 95.648 96.2463 95.1676L103.502 80.8276L107.808 83.2039C107.808 83.2039 102.814 104.568 95.4047 106.636C88.782 108.479 67.7368 96.0422 71.2627 80.2666Z" fill="#68E1FD"/>
<path opacity="0.46" d="M71.2627 80.2666C71.4618 79.3323 71.9007 78.4659 72.5364 77.7528C73.172 77.0397 73.9824 76.5044 74.8877 76.1997C75.7931 75.895 76.7622 75.8312 77.6997 76.0148C78.6371 76.1984 79.5106 76.623 80.2341 77.2468C81.9723 78.7374 83.694 81.0256 84.8931 84.557C86.226 88.5905 88.241 92.3655 90.8502 95.7177C91.1874 96.1387 91.6247 96.4686 92.1221 96.6772C92.6196 96.8857 93.1614 96.9663 93.698 96.9116C94.2346 96.8569 94.749 96.6686 95.1941 96.364C95.6393 96.0594 96.001 95.648 96.2463 95.1676L103.502 80.8276L107.808 83.2039C107.808 83.2039 102.814 104.568 95.4047 106.636C88.782 108.479 67.7368 96.0422 71.2627 80.2666Z" fill="white"/>
<path d="M104.431 81.3389C104.431 81.3389 105.223 74.3256 106.945 73.7646C108.667 73.2035 106.945 78.0055 106.945 78.0055C106.945 78.0055 111.686 78.5556 107.809 83.2036L104.431 81.3389Z" fill="#F4A28C"/>
<path opacity="0.08" d="M162.462 68.5062H143.238V92.8793H162.462V68.5062Z" fill="black"/>
<path d="M110.003 29.4853L145.971 29.4853V25.6459L110.003 25.6459V29.4853Z" fill="#E6E6E6"/>
<path d="M109.998 25.6293L141.681 25.6293V21.7899L109.998 21.7899V25.6293Z" fill="#CCCCCC"/>
<path opacity="0.58" d="M98.2154 24.0948C98.2154 24.0948 93.8809 22.9121 92.9348 18.8747C92.9348 18.8747 99.6565 17.5161 99.849 24.4523L98.2154 24.0948Z" fill="#68E1FD"/>
<path opacity="0.73" d="M98.749 23.6655C98.749 23.6655 95.7182 18.8745 98.386 14.397C98.386 14.397 103.49 17.6423 101.224 23.6765L98.749 23.6655Z" fill="#68E1FD"/>
<path d="M99.53 23.6713C99.53 23.6713 101.131 18.6107 105.966 17.6536C105.966 17.6536 106.873 20.954 102.836 23.7043L99.53 23.6713Z" fill="#68E1FD"/>
<path d="M96.3835 23.5555L97.2636 29.5677L102.797 29.5897L103.617 23.583L96.3835 23.5555Z" fill="#24285B"/>
</svg>
