<svg width="194" height="139" viewBox="0 0 194 139" fill="none" xmlns="http://www.w3.org/2000/svg">
<path d="M94.1078 137.258L4.44799 84.2667C1.59436 82.6652 -0.855171 80.0311 1.92861 78.3099L91.9128 26.4258C93.2647 25.5876 95.3152 25.0389 96.6871 25.8371L190.807 80.4701C193.661 82.1264 194.174 86.7561 191.306 88.4174L105.941 137.174C104.147 138.216 102.111 138.773 100.036 138.788C97.9605 138.803 95.9171 138.275 94.1078 137.258Z" fill="#BFC0C0"/>
<path style="mix-blend-mode:multiply" opacity="0.91" d="M21.3403 90.9467L37.8036 81.5876C34.3912 79.2778 31.8818 78.6642 28.9234 75.8105L12.8542 84.8055C15.7628 86.7312 18.6363 88.7467 21.3403 90.9467Z" fill="url(#paint0_linear_301_390)"/>
<path style="mix-blend-mode:multiply" opacity="0.91" d="M120.579 106.178L138.538 95.9805C134.822 93.486 132.088 92.7976 128.865 89.6845L111.349 99.5126C114.502 101.618 117.615 103.808 120.579 106.178Z" fill="url(#paint1_linear_301_390)"/>
<path d="M23.7051 49.7385C24.6012 49.684 25.4967 49.8556 26.3093 50.2374C27.1419 50.708 27.7907 51.4465 28.1502 52.3327C28.5493 53.1759 28.7289 54.3782 29.562 54.922C29.887 55.0964 30.1684 55.342 30.3852 55.6404C30.5871 55.927 30.7158 56.2587 30.7601 56.6065C30.8045 56.9544 30.7631 57.3077 30.6396 57.6359C30.2704 58.3743 28.7289 58.8282 28.0204 58.6936" fill="#8FDB5E"/>
<path d="M23.0266 49.8284C22.7627 49.8528 22.501 49.8961 22.2433 49.9581C21.377 50.2214 20.5893 50.6948 19.9504 51.3364C19.3114 51.9779 18.8412 52.7676 18.5815 53.6349C18.3195 54.6631 18.3075 55.7391 18.5466 56.7729C18.7461 57.6061 19.24 59.0478 20.2578 59.1127C21.6297 59.1975 22.0787 57.9104 22.5127 56.8577C22.9468 55.8051 23.4007 54.6427 24.5083 54.2236C25.049 54.0196 25.6377 53.9784 26.2016 54.1052C26.7654 54.232 27.2798 54.5212 27.6812 54.937L23.0266 49.8284Z" fill="#1E8C0E"/>
<path d="M29.3024 55.4113C28.4742 54.3387 27.8057 53.1663 26.9826 52.0737C26.5307 51.3575 25.9892 50.702 25.3712 50.1231C23.4604 49.1951 21.0558 50.0482 19.6489 51.6696C19.8435 51.7295 20.1129 51.7395 20.2626 51.7943C21.1084 52.1197 21.8596 52.6513 22.4477 53.3409C23.2908 54.2738 23.9443 55.4212 24.6977 56.414C25.91 58.0254 27.5214 59.3525 29.6017 58.4096C30.9337 57.776 29.8911 56.1696 29.3024 55.4113Z" fill="#8FDB5E"/>
<path d="M36.0423 41.597C36.0423 41.597 40.3427 41.2577 40.2629 48.0825C40.1831 54.9073 33.7774 50.4123 35.1643 46.3115" fill="#1E8C0E"/>
<path d="M35.4239 48.292C35.379 46.2216 37.7038 44.71 39.6694 44.4456C39.3601 43.2533 38.1728 41.3425 35.7781 41.4074C32.8347 41.4822 30.6246 44.4755 30.1257 48.0026C29.6268 51.5298 32.2909 53.7648 32.2909 53.7648L33.7127 54.9771C36.3319 53.9494 35.359 50.1828 35.4239 48.292Z" fill="#8FDB5E"/>
<path d="M47.1427 53.1662C47.0798 51.8765 46.7395 50.6156 46.145 49.4694C45.8715 48.9212 45.4777 48.4417 44.9931 48.0669C44.5086 47.692 43.9456 47.4313 43.3462 47.3043L40.9216 51.9689C40.9216 51.9689 44.5336 45.6529 43.0569 50.5171C41.5802 55.3812 46.4443 60.8291 47.1078 53.5803C47.1278 53.4356 47.1328 53.3009 47.1427 53.1662Z" fill="#1E8C0E"/>
<path d="M30.0208 65.3089C30.0208 65.3089 26.7831 67.4142 27.6811 72.3432C27.999 74.0484 28.4801 75.719 29.1179 77.3321C29.7465 78.9335 30.2054 81.0039 31.8218 81.9119C33.3185 82.755 35.6583 82.9096 37.1749 81.9817C38.5618 81.1336 39.0607 79.2079 39.5695 77.7761C40.1765 76.013 40.593 74.19 40.8118 72.3382C42.3433 60.4298 30.0208 65.3089 30.0208 65.3089Z" fill="#68E1FD"/>
<path d="M34.3861 67.7336C36.9953 67.7336 39.1105 66.9698 39.1105 66.0275C39.1105 65.0852 36.9953 64.3213 34.3861 64.3213C31.7768 64.3213 29.6616 65.0852 29.6616 66.0275C29.6616 66.9698 31.7768 67.7336 34.3861 67.7336Z" fill="#68E1FD"/>
<path d="M34.7652 56.9276C34.1067 55.3362 32.8744 53.9992 32.4853 52.293C32.2408 51.1372 32.339 49.9352 32.7679 48.8345C33.1969 47.7338 33.9378 46.7823 34.8999 46.0968C35.2591 45.8374 34.8999 45.2287 34.5457 45.4931C31.5274 47.6882 30.9437 51.4299 32.6998 54.6178C33.2436 55.6155 33.957 56.5535 34.2913 57.646C34.7253 59.0678 34.2414 60.0955 33.5729 61.1382C33.6105 60.0836 33.2345 59.056 32.5252 58.2746C31.7419 57.5462 30.5845 57.4265 29.6117 57.0972C27.7309 56.4636 26.0746 55.3861 25.7553 53.2907C25.6855 52.8467 25.017 53.0363 25.0818 53.4753C25.3412 55.1915 26.4687 56.4138 27.9853 57.192C28.8941 57.593 29.8313 57.9265 30.7891 58.1898C31.2035 58.3494 31.5809 58.5919 31.8983 58.9024C32.2157 59.2129 32.4664 59.585 32.635 59.9958C33.079 61.0235 32.7796 61.7269 32.5252 62.7247C32.2009 64.0168 31.6821 65.1293 32.5751 66.3566C32.8345 66.7158 33.4432 66.3566 33.1787 66.0024C31.7619 64.0517 34.0269 62.1909 34.7852 60.5146C35.0393 59.9503 35.169 59.3378 35.1655 58.7189C35.1621 58.1 35.0256 57.4891 34.7652 56.9276Z" fill="#1E8C0E"/>
<path d="M43.476 52.6473C40.4826 52.1235 38.4572 54.4333 38.6368 57.3219C38.6985 58.0467 38.8322 58.7637 39.0359 59.4621C39.1706 59.961 39.5348 60.8191 39.43 61.318C39.3289 61.7641 39.1207 62.1788 38.8234 62.5265C38.5262 62.8742 38.1488 63.1443 37.7238 63.3135C36.4267 63.9271 35.5936 64.6605 35.2294 66.0823C35.2067 66.171 35.2198 66.2651 35.2658 66.3442C35.3118 66.4234 35.3871 66.4813 35.4754 66.5055C35.5637 66.5297 35.658 66.5183 35.7379 66.4736C35.8179 66.429 35.8771 66.3548 35.9029 66.2669C36.5913 63.7376 40.1234 64.1017 40.1484 61.318C40.1484 59.961 39.44 58.6838 39.3552 57.3269C39.2105 54.9472 40.762 52.8768 43.3113 53.3358C43.7304 53.4006 43.92 52.7271 43.476 52.6473Z" fill="#1E8C0E"/>
<path d="M46.1449 49.4642C44.9875 47.329 42.8872 46.8301 40.8268 47.4687C40.5419 47.5845 40.2652 47.7195 39.9987 47.8728C34.8152 51.7142 38.502 60.3799 39.2952 60.315C41.9393 60.0955 41.6649 58.544 42.548 54.1987C42.6954 53.2153 43.1951 52.319 43.9541 51.6766C44.713 51.0342 45.6796 50.6894 46.6738 50.7064C46.5343 50.2776 46.3574 49.862 46.1449 49.4642Z" fill="#8FDB5E"/>
<path d="M45.0073 48.0425C44.142 47.907 43.2559 48.0376 42.4665 48.4172C41.6771 48.7967 41.0217 49.4072 40.5872 50.1678C38.6914 53.3357 39.1305 57.0275 39.3799 60.5247C39.4098 60.9687 40.1133 60.9737 40.0783 60.5247C39.8938 57.9953 39.5395 55.4959 40.228 53.0114C40.5672 51.7942 40.9713 50.4422 41.9442 49.5691C42.4686 49.1047 43.1177 48.8043 43.8111 48.705C44.5045 48.6057 45.2118 48.7119 45.8455 49.0104L45.5811 48.6512C45.3915 48.4566 45.1969 48.2571 45.0073 48.0425Z" fill="#1E8C0E"/>
<path opacity="0.3" d="M77.9539 29.9976V92.5031L98.8821 106.337L122.564 92.7576V28.2216" fill="black"/>
<path opacity="0.3" d="M98.8823 41.7614V106.337L122.564 92.7576V28.2216L98.8823 41.7614Z" fill="black"/>
<path opacity="0.3" d="M77.9539 29.9979L101.796 16.2337L122.564 28.2219L98.8821 41.7617L77.9539 29.9979Z" fill="black"/>
<path style="mix-blend-mode:multiply" opacity="0.63" d="M78.2932 93.531L100.454 104.98L77.8642 119.149H77.2755C68.1309 114.105 61.9397 110.363 55.4392 106.347C63.8454 101.872 70.5205 99.0088 78.2932 93.531Z" fill="url(#paint2_linear_301_390)" fill-opacity="0.6"/>
<path opacity="0.18" d="M77.9539 29.9976V92.5031L98.8821 106.337L122.564 92.7576V28.2216" fill="black"/>
<path d="M77.9539 29.9976V92.5031L98.8821 106.337L122.564 92.7576V28.2216" fill="#68E1FD"/>
<path d="M98.8823 41.7614V106.337L122.564 92.7576V28.2216L98.8823 41.7614Z" fill="#68E1FD"/>
<path opacity="0.12" d="M77.9539 29.9976V92.5031L98.8821 106.337L122.564 92.7576V28.2216" fill="black"/>
<path d="M98.8823 41.7614V106.337L122.564 92.7576V28.2216L98.8823 41.7614Z" fill="#68E1FD"/>
<path opacity="0.31" d="M98.8823 41.7614V106.337L122.564 92.7576V28.2216L98.8823 41.7614Z" fill="black"/>
<path d="M77.9539 29.9979L101.796 16.2337L122.564 28.2219L98.8821 41.7617L77.9539 29.9979Z" fill="#68E1FD"/>
<path d="M120.968 9.10449L79.4407 18.3339V30.5716L95.6545 40.3148L120.968 25.4779V9.10449Z" fill="#70BC0D"/>
<path d="M121.113 9.08454L95.415 26.7601L79.4407 18.3339L91.4838 11.7686" fill="#67A00D"/>
<path d="M76.4324 15.8244L91.7482 24.6646C96.4258 23.9163 100.93 22.3293 105.044 19.9801C111.898 16.0688 121.337 8.79508 121.337 8.79508L107.254 0.648262L87.343 12.407C87.343 12.407 81.8353 15.116 76.4324 15.8244Z" fill="#91D12C"/>
<path d="M78.1685 16.0788L92.0126 24.061C96.4427 23.0833 100.708 21.4684 104.674 19.2667C110.875 15.7496 119.411 9.17425 119.411 9.17425L106.68 1.8007L88.675 12.432C85.3082 14.0072 81.7872 15.2294 78.1685 16.0788V16.0788Z" stroke="#2E3192" stroke-width="0.498886" stroke-miterlimit="10"/>
<path d="M95.415 26.7601V40.3148L120.968 25.4779L121.337 8.80017L95.415 26.7601Z" fill="#618E0C"/>
<path d="M96.7869 9.70309L106.266 3.81623L116.623 9.30398C116.623 9.30398 105.812 15.8494 104.989 16.2884C104.165 16.7274 95.1755 21.7013 91.2343 21.4918L82.2095 16.5029L96.7869 9.70309Z" fill="#8CC127"/>
<path d="M99.8899 17.9246C104.4 17.9246 108.057 16.1623 108.057 13.9884C108.057 11.8145 104.4 10.0522 99.8899 10.0522C95.3795 10.0522 91.7231 11.8145 91.7231 13.9884C91.7231 16.1623 95.3795 17.9246 99.8899 17.9246Z" fill="#C7E58F"/>
<path d="M79.4407 22.2051C82.1413 23.6286 84.822 25.0704 87.4827 26.5304C90.1434 27.9905 92.8175 29.4589 95.5048 30.9356H95.2703L101.651 26.7499L108.072 22.5992L114.502 18.4934C116.648 17.1298 118.809 15.7794 120.988 14.4424C118.893 15.8825 116.789 17.311 114.677 18.7279L108.331 22.9584L101.95 27.169L95.5497 31.3247L95.435 31.3996L95.3152 31.3347C92.6545 29.8447 90.0038 28.3364 87.363 26.8098C84.7222 25.2832 82.0814 23.7483 79.4407 22.2051Z" fill="#55823D"/>
<path d="M79.4407 24.0959C82.1413 25.536 84.822 26.9861 87.4827 28.4462C90.1434 29.9063 92.8175 31.3746 95.5048 32.8514H95.2703L101.651 28.6657L108.057 24.5199L114.487 20.4141C116.633 19.0505 118.794 17.7002 120.973 16.3632C118.878 17.8033 116.774 19.2318 114.662 20.6486L108.316 24.8791L101.95 29.0848L95.5497 33.2405L95.435 33.3153L95.3152 33.2505C92.6545 31.7605 90.0038 30.2522 87.363 28.7256C84.7222 27.199 82.0814 25.6557 79.4407 24.0959Z" fill="#55823D"/>
<path d="M79.5005 26.5904C82.1978 28.0172 84.8851 29.4606 87.5625 30.9207C90.2399 32.3808 92.9139 33.8492 95.5846 35.3259H95.3501L101.731 31.1402L108.137 26.9945L114.567 22.8886C116.712 21.525 118.874 20.1747 121.053 18.8377C118.961 20.2711 116.852 21.6913 114.727 23.0982L108.381 27.3287L102.005 31.5194L95.6045 35.6751L95.4898 35.7499L95.3701 35.6851C92.7093 34.1951 90.0586 32.6868 87.4178 31.1602C84.777 29.6336 82.1379 28.1103 79.5005 26.5904Z" fill="#55823D"/>
<path d="M79.4407 28.9701C82.1413 30.3969 84.822 31.8403 87.4827 33.3004C90.1434 34.7605 92.8175 36.2289 95.5048 37.7056H95.2703L101.651 33.5199L108.057 29.3742L114.487 25.2683C116.633 23.9047 118.794 22.5544 120.973 21.2174C118.878 22.6575 116.774 24.086 114.662 25.5028L108.316 29.7334L101.95 33.934L95.5497 38.0897L95.435 38.1646L95.3152 38.0997C92.6545 36.6097 90.0038 35.1014 87.363 33.5748C84.7222 32.0482 82.0814 30.5133 79.4407 28.9701Z" fill="#55823D"/>
<path d="M89.0391 11.4043L105.043 19.9852V34.8121L111.07 31.2251V15.9941L95.4148 7.64274L89.0391 11.4043Z" fill="#DCE5CA"/>
<path d="M105.043 19.9851L111.07 15.994V31.225L105.043 34.812V19.9851Z" fill="#C7D1B0"/>
<path d="M75.2599 57.2369L62.0395 113.017C61.7202 114.359 63.7905 114.933 64.1098 113.586L77.3104 57.8057C77.6297 56.4636 75.5593 55.8899 75.24 57.2369H75.2599Z" fill="#9E4C36"/>
<path d="M87.6475 63.8423L74.4469 119.618C74.1276 120.96 76.198 121.533 76.5173 120.186L89.7178 64.406C90.0371 63.064 87.9668 62.4903 87.6475 63.8373V63.8423Z" fill="#9E4C36"/>
<path d="M73.8828 66.0373L86.2702 72.9568C87.4775 73.6303 88.5601 71.7794 87.3528 71.1059L74.9654 64.1864C73.7581 63.5129 72.6755 65.3638 73.8828 66.0373Z" fill="#9E4C36"/>
<path d="M72.5908 73.79L84.4892 80.4252C85.6965 81.0987 86.7791 79.2479 85.5718 78.5744L73.6883 71.9392C72.481 71.2657 71.3984 73.1165 72.6057 73.79H72.5908Z" fill="#9E4C36"/>
<path d="M71.1541 80.0709L83.0176 86.7011C84.2249 87.3746 85.3075 85.5237 84.1002 84.8502L72.2367 78.22C71.0294 77.5465 69.9468 79.3974 71.1541 80.0709Z" fill="#9E4C36"/>
<path d="M69.2884 86.8259L81.0471 93.3912C82.2544 94.0647 83.337 92.2139 82.1297 91.5404L70.3709 84.96C69.1636 84.2865 68.0811 86.1374 69.2884 86.8109V86.8259Z" fill="#9E4C36"/>
<path d="M67.6719 93.0069L79.4506 99.5873C80.6579 100.261 81.7405 98.4099 80.5332 97.7364L68.7545 91.1561C67.5472 90.4826 66.4646 92.3334 67.6719 93.0069Z" fill="#9E4C36"/>
<path d="M65.8758 100.196L78.2631 107.116C79.4704 107.789 80.553 105.938 79.3457 105.265L66.9583 98.3453C65.751 97.6718 64.6685 99.5227 65.8758 100.196Z" fill="#9E4C36"/>
<path d="M89.0791 31.7838C89.0791 31.7838 90.4461 30.1175 90.5758 29.5587C90.7055 29 90.7653 26.735 91.1645 26.6852C91.5636 26.6353 91.7881 27.0992 92.0275 27.0493C92.372 26.9463 92.7266 26.8811 93.0852 26.8548C93.17 26.9146 94.5419 28.3514 94.3723 28.9202C94.2027 29.4889 92.0674 30.9157 92.0674 30.9157L89.4782 33.7594" fill="#FCBF81"/>
<path d="M76.0433 28.7805C76.0433 28.7805 75.8238 26.6353 76.0433 26.1115C76.2628 25.5876 77.4502 23.652 77.1408 23.3876C76.8315 23.1231 76.3925 23.3876 76.2179 23.2129C76.0433 23.0383 75.5494 22.4646 75.4446 22.4646C75.3399 22.4646 73.4092 22.9036 73.2346 23.4624C73.06 24.0211 74.0477 26.4058 74.0477 26.4058L74.6414 30.2073" fill="#FCBF81"/>
<path d="M78.837 39.3618C78.837 39.3618 76.2428 27.7877 75.8786 27.7128C75.0069 27.6463 74.1359 27.8501 73.3842 28.2965C72.4812 28.8802 74.4418 41.981 74.4418 41.981" fill="#AA2B2B"/>
<path d="M77.5298 87.2452L79.2559 88.0234C79.2963 88.1891 79.3785 88.3417 79.4947 88.4666C79.6108 88.5915 79.7571 88.6846 79.9194 88.7368C79.9751 88.8173 80.0586 88.8742 80.1539 88.8965C80.8708 89.0069 81.6036 88.9489 82.2941 88.7269C83.1672 88.5273 86.5895 87.5245 85.472 89.8344C84.8335 90.2135 84.125 90.5228 83.4765 90.8322C83.1123 91.0167 82.7431 91.2013 82.369 91.366C82.169 91.4805 81.9516 91.5614 81.7254 91.6054C81.2265 91.6404 80.114 91.1864 80.0741 91.3061C80.0342 91.4258 79.8546 92.3338 79.8546 92.3338C79.8546 92.3338 76.7415 93.2468 76.7715 91.2113C76.7764 90.9469 77.5298 87.2452 77.5298 87.2452Z" fill="#34323D"/>
<path d="M75.9631 84.3464C75.9631 84.3464 79.0612 83.2588 79.7796 83.2638C80.498 83.2688 81.6854 83.613 80.528 84.8452C80.528 84.8452 77.2203 86.6512 76.8013 86.6811C76.3822 86.7111 75.3994 86.317 75.3645 86.4217C75.3296 86.5265 75.1749 87.3147 75.1749 87.3147C75.1749 87.3147 72.4659 88.108 72.4909 86.317C72.4909 86.0875 73.1494 82.8547 73.1494 82.8547" fill="#34323D"/>
<path d="M76.5071 68.871C76.6168 62.8844 76.8962 56.8428 76.108 50.8712C76.1778 49.3396 75.1102 50.2376 75.2249 49.6339C76.1579 44.7648 82.8429 51.1855 82.8429 51.1855C83.1123 51.4449 83.0275 52.9565 83.0575 53.3008C83.2271 55.2132 83.3518 57.1289 83.4316 59.0479C83.8457 68.7363 82.6384 78.2451 81.3812 87.8287C79.7349 89.2605 78.7022 89.6446 76.3325 88.4473C76.3325 82.1114 76.3923 75.7706 76.4921 69.4347C76.5021 69.2485 76.5071 69.0606 76.5071 68.871Z" fill="#68E1FD"/>
<path d="M72.5162 79.4374C72.6708 77.0527 72.9602 74.673 73.1647 72.3133C73.479 68.6963 73.3842 65.0744 73.4341 61.4525C73.8881 56.9625 74.3421 51.2553 74.3421 51.2553L78.0588 52.288C78.0588 52.288 80.4734 83.5881 76.7667 84.9151C73.0599 86.2422 72.4912 83.8325 72.4912 83.8325C72.4912 83.8325 72.5162 81.9916 72.5162 79.4374Z" fill="#68E1FD"/>
<path d="M74.0476 51.0358C74.0685 50.4077 74.1487 49.783 74.2871 49.17C74.5567 47.1835 74.5567 45.1698 74.2871 43.1834C74.0576 41.2626 74.0426 39.2721 75.23 37.6357C76.9411 36.638 79.3208 37.531 80.7576 38.5886C82.7083 40.0254 83.3618 49.7836 83.3319 52.8019C83.3319 53.2259 80.7476 53.4454 80.4533 53.4654C79.1155 53.5869 77.7669 53.4857 76.4622 53.1661C75.5293 52.9166 74.3669 52.4527 74.1075 51.41C74.0754 51.2875 74.0553 51.1622 74.0476 51.0358Z" fill="#EA4949"/>
<path d="M76.4573 53.8546C76.4889 53.8016 76.5377 53.7611 76.5956 53.7398C76.6535 53.7185 76.7169 53.7177 76.7753 53.7375C76.8337 53.7574 76.8836 53.7967 76.9165 53.8489C76.9494 53.901 76.9634 53.9629 76.9562 54.0242C75.1951 59.4221 78.1136 64.9997 77.5498 70.5174C77.2505 73.4209 76.7367 76.2745 76.5521 79.193C76.3763 82.2914 76.408 85.3981 76.6469 88.4922C76.6718 88.8365 76.148 88.8065 76.1081 88.4673C75.8692 85.3731 75.8375 82.2664 76.0133 79.168C76.1929 76.0899 76.7915 73.0766 77.041 70.0085C77.5049 64.5956 74.7112 59.1976 76.4573 53.8546Z" fill="#34323D"/>
<path d="M78.5525 32.1031C78.7171 32.138 80.1988 35.2062 79.7448 37.1219C79.2908 39.0376 75.9882 37.2217 75.1202 35.8098C74.2521 34.398 75.4744 31.4396 78.5525 32.1031Z" fill="#FCBF81"/>
<path d="M78.5027 32.5422C78.5134 32.8325 78.4394 33.1196 78.2897 33.3685C78.14 33.6174 77.921 33.8174 77.6596 33.9441C76.7716 34.3132 76.0333 34.5677 76.0981 34.9817C76.163 35.3958 77.7245 34.857 77.7694 35.8099C77.7965 36.4536 77.7361 37.0981 77.5898 37.7256C77.51 38.1996 74.7461 36.8725 73.7533 34.4629C72.7606 32.0533 74.9706 31.3149 75.0754 31.295C75.3854 30.7986 75.8751 30.4411 76.4423 30.2972C77.5299 30.0128 77.8542 30.4269 77.8542 30.4269C78.097 30.2666 78.3857 30.1905 78.676 30.2103C78.9662 30.2301 79.2419 30.3448 79.4606 30.5367C79.6925 30.7105 79.8757 30.9411 79.9929 31.2061C80.11 31.4712 80.157 31.7619 80.1295 32.0504C80.1019 32.3389 80.0007 32.6155 79.8355 32.8536C79.6704 33.0917 79.4468 33.2834 79.1862 33.4102L78.5027 32.5422Z" fill="#34323D"/>
<path d="M79.0764 37.8202C79.0764 37.8202 82.409 37.8501 83.9256 36.6927C85.4422 35.5353 89.7526 29.7083 89.7526 29.7083C89.7526 29.7083 92.9056 31.8884 92.9105 32.5969C92.9155 33.3053 87.5625 40.7337 86.0858 41.5768C84.6091 42.4199 81.521 44.2558 81.521 44.2558" fill="#EA4949"/>
<path d="M82.4937 43.5974C82.4937 43.5974 81.3712 43.5675 80.8274 43.5974C80.2837 43.6273 83.1722 48.9804 83.1722 48.9804L82.4937 43.5974Z" fill="#AA2B2B"/>
<path d="M129.529 98.5048C135.976 98.5048 141.203 95.4425 141.203 91.665C141.203 87.8876 135.976 84.8253 129.529 84.8253C123.081 84.8253 117.855 87.8876 117.855 91.665C117.855 95.4425 123.081 98.5048 129.529 98.5048Z" fill="#FF912E"/>
<path d="M117.855 91.6651V89.6895L119.127 91.271L117.855 91.6651Z" fill="#E0944F"/>
<path d="M141.208 89.6895V91.6651H139.726L140.809 90.0786L141.208 89.6895Z" fill="#E0944F"/>
<path d="M129.529 96.5294C135.976 96.5294 141.203 93.4671 141.203 89.6896C141.203 85.9122 135.976 82.8499 129.529 82.8499C123.081 82.8499 117.855 85.9122 117.855 89.6896C117.855 93.4671 123.081 96.5294 129.529 96.5294Z" fill="#FFB92C"/>
<path d="M135.451 88.7765C135.529 88.9305 135.562 89.1035 135.545 89.2754L135.5 89.455H133.37C133.389 89.3965 133.403 89.3364 133.41 89.2754C133.402 89.1366 133.357 89.0025 133.28 88.8863C133.165 88.6817 132.992 88.5166 132.782 88.4123C132.473 88.2509 132.132 88.1605 131.784 88.1479C131.459 88.1238 131.134 88.1732 130.831 88.2926C130.532 88.419 130.417 88.5853 130.487 88.7915C130.587 89.0451 130.742 89.2734 130.941 89.46C131.172 89.6944 131.388 89.9426 131.589 90.2033C131.684 90.3157 131.745 90.4526 131.766 90.5983C131.786 90.744 131.765 90.8925 131.704 91.0265C131.47 91.4148 131.1 91.7027 130.666 91.8347C129.949 92.1327 129.182 92.2918 128.406 92.3036C127.561 92.3342 126.716 92.216 125.912 91.9544L124.685 92.4832L123.248 91.7848L124.44 91.2859C124.228 91.1472 124.037 90.9793 123.871 90.787C123.745 90.6406 123.649 90.4712 123.587 90.2881C123.546 90.1637 123.521 90.0347 123.512 89.904C123.498 89.8148 123.498 89.7238 123.512 89.6346L123.552 89.5348H125.682C125.661 89.6052 125.644 89.6768 125.632 89.7493C125.638 89.9288 125.697 90.1024 125.802 90.2482C125.973 90.5151 126.22 90.7252 126.511 90.8519C126.896 91.0451 127.317 91.1539 127.748 91.1712C128.138 91.197 128.528 91.1339 128.89 90.9866C129.186 90.8602 129.298 90.6939 129.224 90.4877C129.12 90.2326 128.96 90.0041 128.756 89.8192C128.52 89.5891 128.302 89.3424 128.102 89.0808C128.008 88.9663 127.95 88.8271 127.934 88.6801C127.918 88.5331 127.945 88.3846 128.012 88.2527C128.267 87.8591 128.652 87.5676 129.1 87.4295C129.788 87.1525 130.523 87.0086 131.265 87.0055C132.051 86.979 132.834 87.1009 133.575 87.3647L134.797 86.8408L136.134 87.5692L134.907 88.098C135.142 88.2747 135.329 88.5081 135.451 88.7765Z" fill="#EA8B24"/>
<path d="M129.549 95.5164C134.963 95.5164 139.352 92.9456 139.352 89.7742C139.352 86.6029 134.963 84.0321 129.549 84.0321C124.135 84.0321 119.746 86.6029 119.746 89.7742C119.746 92.9456 124.135 95.5164 129.549 95.5164Z" stroke="#F7931E" stroke-width="0.997773" stroke-miterlimit="10"/>
<path d="M129.529 93.5508C135.976 93.5508 141.203 90.4885 141.203 86.711C141.203 82.9335 135.976 79.8713 129.529 79.8713C123.081 79.8713 117.855 82.9335 117.855 86.711C117.855 90.4885 123.081 93.5508 129.529 93.5508Z" fill="#FF912E"/>
<path d="M117.855 86.7111V84.7355L119.127 86.312L117.855 86.7111Z" fill="#E0944F"/>
<path d="M141.208 84.7355V86.7111H139.726L140.809 85.1246L141.208 84.7355Z" fill="#E0944F"/>
<path d="M129.529 91.5751C135.976 91.5751 141.203 88.5129 141.203 84.7354C141.203 80.9579 135.976 77.8957 129.529 77.8957C123.081 77.8957 117.855 80.9579 117.855 84.7354C117.855 88.5129 123.081 91.5751 129.529 91.5751Z" fill="#FFB92C"/>
<path d="M135.451 83.8227C135.529 83.9767 135.562 84.1497 135.545 84.3216L135.5 84.5012H133.37C133.389 84.4428 133.403 84.3826 133.41 84.3216C133.402 84.1828 133.357 84.0487 133.28 83.9325C133.165 83.728 132.992 83.5628 132.782 83.4586C132.473 83.2971 132.132 83.2067 131.784 83.1941C131.459 83.17 131.134 83.2194 130.831 83.3388C130.532 83.4652 130.417 83.6315 130.487 83.8377C130.587 84.0913 130.742 84.3196 130.941 84.5062C131.172 84.7406 131.388 84.9889 131.589 85.2496C131.684 85.3619 131.745 85.4988 131.766 85.6445C131.786 85.7902 131.765 85.9387 131.704 86.0727C131.47 86.461 131.1 86.7489 130.666 86.8809C129.949 87.1789 129.182 87.338 128.406 87.3499C127.561 87.3804 126.716 87.2622 125.912 87.0006L124.685 87.5295L123.248 86.831L124.44 86.3321C124.228 86.1935 124.037 86.0255 123.871 85.8332C123.745 85.6869 123.649 85.5175 123.587 85.3344C123.546 85.2099 123.521 85.0809 123.512 84.9502C123.498 84.861 123.498 84.77 123.512 84.6808L123.552 84.581H125.682C125.661 84.6514 125.644 84.7231 125.632 84.7956C125.638 84.975 125.697 85.1486 125.802 85.2944C125.973 85.5614 126.22 85.7715 126.511 85.8981C126.896 86.0913 127.317 86.2002 127.748 86.2174C128.138 86.2432 128.528 86.1801 128.89 86.0328C129.186 85.9064 129.298 85.7401 129.224 85.5339C129.12 85.2788 128.96 85.0503 128.756 84.8654C128.52 84.6354 128.302 84.3886 128.102 84.1271C128.008 84.0126 127.95 83.8733 127.934 83.7263C127.918 83.5793 127.945 83.4308 128.012 83.2989C128.267 82.9053 128.652 82.6139 129.1 82.4757C129.788 82.1987 130.523 82.0548 131.265 82.0517C132.051 82.0252 132.834 82.1471 133.575 82.4109L134.797 81.8871L136.134 82.6154L134.907 83.1443C135.142 83.3209 135.329 83.5543 135.451 83.8227Z" fill="#EA8B24"/>
<path d="M129.549 90.5577C134.963 90.5577 139.352 87.9868 139.352 84.8155C139.352 81.6442 134.963 79.0733 129.549 79.0733C124.135 79.0733 119.746 81.6442 119.746 84.8155C119.746 87.9868 124.135 90.5577 129.549 90.5577Z" stroke="#F7931E" stroke-width="0.997773" stroke-miterlimit="10"/>
<path d="M129.529 91.181C135.976 91.181 141.203 88.1188 141.203 84.3413C141.203 80.5638 135.976 77.5016 129.529 77.5016C123.081 77.5016 117.855 80.5638 117.855 84.3413C117.855 88.1188 123.081 91.181 129.529 91.181Z" fill="#FF912E"/>
<path d="M117.855 84.3414V82.3658L119.127 83.9472L117.855 84.3414Z" fill="#E0944F"/>
<path d="M141.208 82.3658V84.3414H139.726L140.809 82.7549L141.208 82.3658Z" fill="#E0944F"/>
<path d="M129.529 89.2056C135.976 89.2056 141.203 86.1434 141.203 82.3659C141.203 78.5884 135.976 75.5262 129.529 75.5262C123.081 75.5262 117.855 78.5884 117.855 82.3659C117.855 86.1434 123.081 89.2056 129.529 89.2056Z" fill="#FFB92C"/>
<path d="M135.451 81.4677C135.529 81.6217 135.562 81.7947 135.545 81.9666L135.5 82.1462H133.37C133.389 82.0878 133.403 82.0276 133.41 81.9666C133.402 81.8278 133.357 81.6937 133.28 81.5775C133.165 81.373 132.992 81.2078 132.782 81.1035C132.473 80.9421 132.132 80.8517 131.784 80.8391C131.459 80.815 131.134 80.8644 130.831 80.9838C130.532 81.1102 130.417 81.2765 130.487 81.4827C130.587 81.7363 130.742 81.9646 130.941 82.1512C131.172 82.3856 131.388 82.6338 131.589 82.8945C131.684 83.0069 131.745 83.1438 131.766 83.2895C131.786 83.4352 131.765 83.5837 131.704 83.7177C131.47 84.106 131.1 84.3939 130.666 84.5259C129.949 84.8239 129.182 84.983 128.406 84.9949C127.561 85.0254 126.716 84.9072 125.912 84.6456L124.685 85.1745L123.248 84.476L124.44 83.9771C124.228 83.8385 124.037 83.6705 123.871 83.4782C123.745 83.3319 123.649 83.1624 123.587 82.9794C123.546 82.8549 123.521 82.7259 123.512 82.5952C123.498 82.506 123.498 82.415 123.512 82.3258L123.552 82.226H125.682C125.661 82.2964 125.644 82.368 125.632 82.4406C125.638 82.62 125.697 82.7936 125.802 82.9394C125.973 83.2064 126.22 83.4165 126.511 83.5431C126.896 83.7363 127.317 83.8452 127.748 83.8624C128.138 83.8882 128.528 83.8251 128.89 83.6778C129.186 83.5514 129.298 83.3851 129.224 83.1789C129.12 82.9238 128.96 82.6953 128.756 82.5104C128.52 82.2804 128.302 82.0336 128.102 81.7721C128.008 81.6575 127.95 81.5183 127.934 81.3713C127.918 81.2243 127.945 81.0758 128.012 80.9439C128.267 80.5503 128.652 80.2589 129.1 80.1207C129.788 79.8437 130.523 79.6998 131.265 79.6967C132.051 79.6702 132.834 79.7921 133.575 80.0559L134.797 79.5321L136.134 80.2604L134.907 80.7892C135.142 80.9659 135.329 81.1993 135.451 81.4677Z" fill="#EA8B24"/>
<path d="M129.549 88.1929C134.963 88.1929 139.352 85.622 139.352 82.4507C139.352 79.2794 134.963 76.7085 129.549 76.7085C124.135 76.7085 119.746 79.2794 119.746 82.4507C119.746 85.622 124.135 88.1929 129.549 88.1929Z" stroke="#F7931E" stroke-width="0.997773" stroke-miterlimit="10"/>
<path d="M129.529 88.7716C135.976 88.7716 141.203 85.7093 141.203 81.9319C141.203 78.1544 135.976 75.0921 129.529 75.0921C123.081 75.0921 117.855 78.1544 117.855 81.9319C117.855 85.7093 123.081 88.7716 129.529 88.7716Z" fill="#FF912E"/>
<path d="M117.855 81.9319V79.9563L119.127 81.5328L117.855 81.9319Z" fill="#E0944F"/>
<path d="M141.208 79.9563V81.9319H139.726L140.809 80.3455L141.208 79.9563Z" fill="#E0944F"/>
<path d="M129.529 86.796C135.976 86.796 141.203 83.7337 141.203 79.9563C141.203 76.1788 135.976 73.1165 129.529 73.1165C123.081 73.1165 117.855 76.1788 117.855 79.9563C117.855 83.7337 123.081 86.796 129.529 86.796Z" fill="#FFB92C"/>
<path d="M135.451 79.0384C135.529 79.1923 135.562 79.3653 135.545 79.5372L135.5 79.7168H133.37C133.389 79.6584 133.403 79.5982 133.41 79.5372C133.402 79.3984 133.357 79.2643 133.28 79.1481C133.165 78.9436 132.992 78.7784 132.782 78.6742C132.473 78.5127 132.132 78.4223 131.784 78.4098C131.459 78.3856 131.134 78.4351 130.831 78.5544C130.532 78.6808 130.417 78.8471 130.487 79.0533C130.587 79.307 130.742 79.5353 130.941 79.7218C131.172 79.9562 131.388 80.2045 131.589 80.4652C131.684 80.5775 131.745 80.7145 131.766 80.8601C131.786 81.0058 131.765 81.1543 131.704 81.2883C131.47 81.6766 131.1 81.9645 130.666 82.0965C129.949 82.3945 129.182 82.5536 128.406 82.5655C127.561 82.596 126.716 82.4778 125.912 82.2163L124.685 82.7451L123.248 82.0466L124.44 81.5478C124.228 81.4091 124.037 81.2411 123.871 81.0489C123.745 80.9025 123.649 80.7331 123.587 80.55C123.546 80.4256 123.521 80.2965 123.512 80.1658C123.498 80.0766 123.498 79.9856 123.512 79.8964L123.552 79.7967H125.682C125.661 79.867 125.644 79.9387 125.632 80.0112C125.638 80.1906 125.697 80.3642 125.802 80.5101C125.973 80.777 126.22 80.9871 126.511 81.1137C126.896 81.3069 127.317 81.4158 127.748 81.433C128.138 81.4588 128.528 81.3957 128.89 81.2484C129.186 81.122 129.298 80.9557 129.224 80.7495C129.12 80.4944 128.96 80.2659 128.756 80.081C128.52 79.851 128.302 79.6042 128.102 79.3427C128.008 79.2282 127.95 79.089 127.934 78.9419C127.918 78.7949 127.945 78.6464 128.012 78.5145C128.267 78.1209 128.652 77.8295 129.1 77.6914C129.788 77.4144 130.523 77.2705 131.265 77.2673C132.051 77.2409 132.834 77.3627 133.575 77.6265L134.797 77.1027L136.134 77.8311L134.907 78.3599C135.142 78.5366 135.329 78.77 135.451 79.0384Z" fill="#EA8B24"/>
<path d="M129.549 85.7783C134.963 85.7783 139.352 83.2074 139.352 80.0361C139.352 76.8648 134.963 74.2939 129.549 74.2939C124.135 74.2939 119.746 76.8648 119.746 80.0361C119.746 83.2074 124.135 85.7783 129.549 85.7783Z" stroke="#F7931E" stroke-width="0.997773" stroke-miterlimit="10"/>
<path d="M126.386 84.551C132.833 84.551 138.06 81.4887 138.06 77.7112C138.06 73.9338 132.833 70.8715 126.386 70.8715C119.938 70.8715 114.712 73.9338 114.712 77.7112C114.712 81.4887 119.938 84.551 126.386 84.551Z" fill="#FF912E"/>
<path d="M114.712 77.7113V75.7357L115.984 77.3172L114.712 77.7113Z" fill="#E0944F"/>
<path d="M138.065 75.7357V77.7113H136.583L137.671 76.1248L138.065 75.7357Z" fill="#E0944F"/>
<path d="M126.386 82.5754C132.833 82.5754 138.06 79.5131 138.06 75.7356C138.06 71.9581 132.833 68.8959 126.386 68.8959C119.938 68.8959 114.712 71.9581 114.712 75.7356C114.712 79.5131 119.938 82.5754 126.386 82.5754Z" fill="#FFB92C"/>
<path d="M132.313 74.8227C132.391 74.9767 132.424 75.1497 132.407 75.3216L132.363 75.5012H130.232C130.251 75.4427 130.265 75.3826 130.272 75.3216C130.264 75.1828 130.219 75.0487 130.142 74.9325C130.028 74.7279 129.854 74.5628 129.644 74.4585C129.335 74.297 128.994 74.2067 128.646 74.1941C128.321 74.17 127.996 74.2194 127.693 74.3388C127.394 74.4652 127.279 74.6315 127.349 74.8377C127.449 75.0913 127.604 75.3196 127.803 75.5062C128.034 75.7406 128.25 75.9888 128.451 76.2495C128.546 76.3619 128.607 76.4988 128.628 76.6445C128.648 76.7902 128.627 76.9387 128.566 77.0727C128.332 77.461 127.962 77.7489 127.528 77.8809C126.811 78.1789 126.045 78.338 125.268 78.3498C124.423 78.3804 123.579 78.2622 122.774 78.0006L121.547 78.5294L120.11 77.831L121.302 77.3321C121.09 77.1934 120.899 77.0255 120.733 76.8332C120.607 76.6868 120.511 76.5174 120.449 76.3343C120.408 76.2099 120.383 76.0809 120.374 75.9502C120.36 75.861 120.36 75.77 120.374 75.6808L120.414 75.581H122.544C122.523 75.6514 122.507 75.723 122.495 75.7955C122.501 75.9749 122.56 76.1486 122.664 76.2944C122.835 76.5613 123.082 76.7714 123.373 76.8981C123.758 77.0913 124.179 77.2001 124.61 77.2174C125 77.2432 125.39 77.18 125.752 77.0328C126.048 76.9064 126.16 76.7401 126.087 76.5339C125.982 76.2788 125.822 76.0503 125.618 75.8654C125.382 75.6353 125.164 75.3886 124.964 75.127C124.87 75.0125 124.812 74.8733 124.796 74.7263C124.78 74.5793 124.807 74.4308 124.874 74.2989C125.129 73.9053 125.514 73.6138 125.962 73.4757C126.65 73.1987 127.385 73.0548 128.127 73.0517C128.913 73.0252 129.696 73.1471 130.437 73.4109L131.659 72.887L132.996 73.6154L131.769 74.1442C132.004 74.3209 132.191 74.5543 132.313 74.8227Z" fill="#EA8B24"/>
<path d="M126.411 81.5626C131.825 81.5626 136.214 78.9918 136.214 75.8204C136.214 72.6491 131.825 70.0783 126.411 70.0783C120.997 70.0783 116.608 72.6491 116.608 75.8204C116.608 78.9918 120.997 81.5626 126.411 81.5626Z" stroke="#F7931E" stroke-width="0.997773" stroke-miterlimit="10"/>
<path d="M126.386 82.0617C132.833 82.0617 138.06 78.9995 138.06 75.222C138.06 71.4445 132.833 68.3823 126.386 68.3823C119.938 68.3823 114.712 71.4445 114.712 75.222C114.712 78.9995 119.938 82.0617 126.386 82.0617Z" fill="#FF912E"/>
<path d="M114.712 75.2218V73.2462L115.984 74.8227L114.712 75.2218Z" fill="#E0944F"/>
<path d="M138.065 73.2462V75.2218H136.583L137.671 73.6354L138.065 73.2462Z" fill="#E0944F"/>
<path d="M126.386 80.0859C132.833 80.0859 138.06 77.0236 138.06 73.2461C138.06 69.4687 132.833 66.4064 126.386 66.4064C119.938 66.4064 114.712 69.4687 114.712 73.2461C114.712 77.0236 119.938 80.0859 126.386 80.0859Z" fill="#FFB92C"/>
<path d="M132.313 72.3282C132.391 72.4822 132.424 72.6552 132.407 72.8271L132.363 73.0067H130.232C130.251 72.9483 130.265 72.8881 130.272 72.8271C130.264 72.6883 130.219 72.5542 130.142 72.438C130.028 72.2335 129.854 72.0683 129.644 71.9641C129.335 71.8026 128.994 71.7122 128.646 71.6996C128.321 71.6755 127.996 71.725 127.693 71.8443C127.394 71.9707 127.279 72.137 127.349 72.3432C127.449 72.5968 127.604 72.8251 127.803 73.0117C128.034 73.2461 128.25 73.4944 128.451 73.7551C128.546 73.8674 128.607 74.0043 128.628 74.15C128.648 74.2957 128.627 74.4442 128.566 74.5782C128.332 74.9665 127.962 75.2544 127.528 75.3864C126.811 75.6844 126.045 75.8435 125.268 75.8554C124.423 75.8859 123.579 75.7677 122.774 75.5061L121.547 76.035L120.11 75.3365L121.302 74.8376C121.09 74.699 120.899 74.531 120.733 74.3388C120.607 74.1924 120.511 74.023 120.449 73.8399C120.408 73.7155 120.383 73.5864 120.374 73.4557C120.36 73.3665 120.36 73.2755 120.374 73.1863L120.414 73.0865H122.544C122.523 73.1569 122.507 73.2286 122.495 73.3011C122.501 73.4805 122.56 73.6541 122.664 73.8C122.835 74.0669 123.082 74.277 123.373 74.4036C123.758 74.5968 124.179 74.7057 124.61 74.7229C125 74.7487 125.39 74.6856 125.752 74.5383C126.048 74.4119 126.16 74.2456 126.087 74.0394C125.982 73.7843 125.822 73.5558 125.618 73.3709C125.382 73.1409 125.164 72.8941 124.964 72.6326C124.87 72.5181 124.812 72.3788 124.796 72.2318C124.78 72.0848 124.807 71.9363 124.874 71.8044C125.129 71.4108 125.514 71.1194 125.962 70.9812C126.65 70.7042 127.385 70.5603 128.127 70.5572C128.913 70.5307 129.696 70.6526 130.437 70.9164L131.659 70.3926L132.996 71.1209L131.769 71.6498C132.004 71.8264 132.191 72.0598 132.313 72.3282Z" fill="#EA8B24"/>
<path d="M126.411 79.0682C131.825 79.0682 136.214 76.4973 136.214 73.326C136.214 70.1547 131.825 67.5838 126.411 67.5838C120.997 67.5838 116.608 70.1547 116.608 73.326C116.608 76.4973 120.997 79.0682 126.411 79.0682Z" stroke="#F7931E" stroke-width="0.997773" stroke-miterlimit="10"/>
<path d="M126.57 79.6917C133.018 79.6917 138.244 76.6295 138.244 72.852C138.244 69.0745 133.018 66.0123 126.57 66.0123C120.123 66.0123 114.896 69.0745 114.896 72.852C114.896 76.6295 120.123 79.6917 126.57 79.6917Z" fill="#FF912E"/>
<path d="M114.896 72.8521V70.8765L116.169 72.458L114.896 72.8521Z" fill="#E0944F"/>
<path d="M138.249 70.8765V72.8521H136.768L137.85 71.2656L138.249 70.8765Z" fill="#E0944F"/>
<path d="M126.57 77.7161C133.018 77.7161 138.244 74.6539 138.244 70.8764C138.244 67.0989 133.018 64.0367 126.57 64.0367C120.123 64.0367 114.896 67.0989 114.896 70.8764C114.896 74.6539 120.123 77.7161 126.57 77.7161Z" fill="#FFB92C"/>
<path d="M126.59 76.7036C132.004 76.7036 136.393 74.1328 136.393 70.9615C136.393 67.7901 132.004 65.2193 126.59 65.2193C121.176 65.2193 116.787 67.7901 116.787 70.9615C116.787 74.1328 121.176 76.7036 126.59 76.7036Z" stroke="#F7931E" stroke-width="0.997773" stroke-miterlimit="10"/>
<path d="M139.267 16.9967L131.27 26.76H137.027V43.2631H141.357V26.8597H146.815L139.267 16.9967Z" fill="#FF9200"/>
<path d="M139.766 56.9676L141.357 54.6228V28.8054H145.224L146.815 26.8598L142.355 21.0328L138.145 28.561L139.766 56.9676Z" fill="#FF9200"/>
<path d="M137.675 18.9424L129.678 28.7056H135.435V56.9675H139.766V28.8054H145.224L137.675 18.9424Z" fill="#F6B857"/>
<defs>
<linearGradient id="paint0_linear_301_390" x1="11.637" y1="92.164" x2="31.6373" y2="79.0533" gradientUnits="userSpaceOnUse">
<stop stop-color="white" stop-opacity="0"/>
<stop offset="0.99" stop-color="#808080"/>
</linearGradient>
<linearGradient id="paint1_linear_301_390" x1="6260.21" y1="3870.75" x2="7043.26" y2="3024.45" gradientUnits="userSpaceOnUse">
<stop stop-color="white" stop-opacity="0"/>
<stop offset="0.99" stop-color="#808080"/>
</linearGradient>
<linearGradient id="paint2_linear_301_390" x1="73.5638" y1="110.314" x2="86.8541" y2="96.22" gradientUnits="userSpaceOnUse">
<stop stop-color="white" stop-opacity="0"/>
<stop offset="1" stop-color="#9E005D"/>
</linearGradient>
</defs>
</svg>
