<svg width="166" height="134" viewBox="0 0 166 134" fill="none" xmlns="http://www.w3.org/2000/svg">
<g clip-path="url(#clip0_301_506)">
<path opacity="0.18" d="M1.72512 108.587C1.31192 108.953 0.880664 109.349 0.722203 109.895C0.45342 110.789 0.997003 111.721 1.59675 112.406C4.7038 115.96 9.61008 116.791 14.1373 117.323C34.5811 119.677 55.1932 119.858 75.6704 117.863C75.5027 117.997 75.3463 118.147 75.2031 118.31C72.4671 121.387 74.4007 126.502 78.3723 126.828C103.774 128.917 129.385 126.378 154.795 123.829C156.831 123.615 158.46 119.733 160.156 118.514C161.853 117.295 162.9 114.754 161.887 112.86C160.538 110.339 156.558 110.365 155.575 107.657C154.608 104.994 157.37 102.59 158.299 99.9145C159.521 96.3926 157.236 92.3715 154.133 90.6106C151.03 88.8496 147.355 88.7832 143.839 88.7725C104.187 88.6477 64.5549 90.6604 25.0932 94.803C20.4797 95.2851 17.3266 95.3493 13.6278 97.9993C9.41752 101.016 5.61645 105.129 1.72512 108.587Z" fill="#68E1FD"/>
<path opacity="0.18" d="M125.325 123.627C126.199 123.441 127.158 123.252 127.945 123.702C128.346 123.931 128.663 124.308 129.08 124.497C129.852 124.846 130.723 124.478 131.533 124.246C134.612 123.366 137.841 124.568 141.025 124.726C144.047 124.878 147.042 124.084 149.969 123.293C150.733 123.079 151.678 122.629 151.611 121.793C151.515 120.594 149.642 120.722 149.022 119.722L154.359 116.723C154.961 116.391 155.591 116.003 155.818 115.332C156.082 114.546 155.645 113.644 154.989 113.19C154.333 112.736 153.523 112.635 152.741 112.614C149.076 112.517 145.536 113.88 141.949 114.705C137.812 115.656 133.559 115.9 129.351 115.427C128.382 115.315 127.401 115.169 126.444 115.347C124.015 115.801 121.993 118.036 119.883 119.272C118.176 120.272 116.369 121.054 114.562 121.819C112.556 122.676 108.7 123.43 107.361 125.309C109.18 126.2 112.199 125.446 114.16 125.281C117.909 124.965 121.637 124.413 125.325 123.627Z" fill="#68E1FD"/>
<path d="M115.938 45.3698V93.7384C115.938 94.7611 115.557 95.7419 114.88 96.4651C114.203 97.1882 113.285 97.5945 112.327 97.5945H15.07C14.1124 97.5945 13.1941 97.1882 12.517 96.4651C11.8399 95.7419 11.4595 94.7611 11.4595 93.7384V32.8225C11.4595 31.7998 11.8399 30.8189 12.517 30.0958C13.1941 29.3726 14.1124 28.9663 15.07 28.9663H40.5983C41.6312 28.9663 42.626 29.3827 43.3839 30.1321C44.1418 30.8816 44.6069 31.909 44.6862 33.0088L44.945 36.6507C45.04 37.9749 45.5996 39.2119 46.5119 40.1144C47.4242 41.0168 48.6218 41.5181 49.8653 41.518H112.333C113.183 41.5192 114.005 41.8404 114.654 42.425C115.304 43.0097 115.74 43.8203 115.886 44.7143C115.92 44.9309 115.937 45.1502 115.938 45.3698Z" fill="#68E1FD"/>
<path d="M115.938 45.3698V93.7384C115.938 94.7611 115.557 95.7419 114.88 96.4651C114.203 97.1882 113.285 97.5945 112.327 97.5945H15.07C14.1124 97.5945 13.1941 97.1882 12.517 96.4651C11.8399 95.7419 11.4595 94.7611 11.4595 93.7384V32.8225C11.4595 31.7998 11.8399 30.8189 12.517 30.0958C13.1941 29.3726 14.1124 28.9663 15.07 28.9663H40.5983C41.6312 28.9663 42.626 29.3827 43.3839 30.1321C44.1418 30.8816 44.6069 31.909 44.6862 33.0088L44.945 36.6507C45.04 37.9749 45.5996 39.2119 46.5119 40.1144C47.4242 41.0168 48.6218 41.5181 49.8653 41.518H112.333C113.183 41.5192 114.005 41.8404 114.654 42.425C115.304 43.0097 115.74 43.8203 115.886 44.7143C115.92 44.9309 115.937 45.1502 115.938 45.3698Z" fill="url(#paint0_linear_301_506)"/>
<path d="M51.2853 41.5179H49.8651C48.6217 41.518 47.424 41.0167 46.5117 40.1142C45.5995 39.2118 45.0398 37.9747 44.9448 36.6506L44.6861 33.0087C44.6663 32.7187 44.6193 32.4317 44.5457 32.1518H46.5515C47.5845 32.1513 48.5796 32.5674 49.3376 33.317C50.0956 34.0666 50.5605 35.0942 50.6394 36.1943L50.9002 39.8362C50.9402 40.4157 51.0704 40.984 51.2853 41.5179Z" fill="#222A72"/>
<path d="M115.937 45.3697V93.7382C115.937 94.761 115.557 95.7418 114.88 96.4649C114.203 97.1881 113.285 97.5944 112.327 97.5944H17.4748C17.4404 97.3785 17.423 97.1599 17.4226 96.941V36.0079C17.4226 34.9852 17.803 34.0044 18.4801 33.2812C19.1572 32.558 20.0756 32.1518 21.0331 32.1518H44.5456C44.6192 32.4317 44.6663 32.7187 44.686 33.0087L44.9447 36.6506C45.0398 37.9747 45.5994 39.2118 46.5117 40.1142C47.424 41.0167 48.6216 41.518 49.8651 41.5179H51.2852C51.6661 42.4661 52.2988 43.2742 53.1053 43.8423C53.9117 44.4104 54.8564 44.7135 55.8224 44.7142H115.885C115.92 44.9307 115.937 45.15 115.937 45.3697Z" fill="#68E1FD"/>
<path d="M115.937 43.7737V92.1358C115.937 93.1585 115.557 94.1394 114.88 94.8625C114.203 95.5857 113.285 95.992 112.327 95.992H17.4748C17.4404 95.7761 17.423 95.5575 17.4226 95.3386V34.4162C17.4226 33.3935 17.803 32.4127 18.4801 31.6895C19.1572 30.9663 20.0756 30.5601 21.0331 30.5601H44.5456C44.6182 30.8402 44.6652 31.1272 44.686 31.417L44.9447 35.0589C45.0398 36.3832 45.5993 37.6205 46.5115 38.5233C47.4238 39.4261 48.6214 39.9279 49.8651 39.9283H51.2852C51.6661 40.8765 52.2988 41.6846 53.1053 42.2527C53.9117 42.8208 54.8564 43.124 55.8224 43.1246H115.885C115.92 43.339 115.937 43.5561 115.937 43.7737Z" fill="url(#paint1_linear_301_506)"/>
<path d="M110.879 18.3832V41.5199H49.8653C48.6217 41.5195 47.424 41.0177 46.5118 40.1149C45.5996 39.2122 45.04 37.9749 44.945 36.6505L44.6862 33.0086C44.6074 31.9086 44.1424 30.8809 43.3844 30.1314C42.6264 29.3818 41.6314 28.9656 40.5983 28.9661H23.0332V18.3832H110.879Z" fill="#68E1FD"/>
<path d="M52.5451 26.7446V41.5263H51.2854V26.7446C51.2851 26.6565 51.3011 26.5693 51.3324 26.4878C51.3637 26.4063 51.4098 26.3323 51.4679 26.2698C51.526 26.2073 51.5951 26.1577 51.6711 26.1237C51.7472 26.0898 51.8288 26.0722 51.9112 26.0719C51.9932 26.071 52.0744 26.0874 52.1504 26.1201C52.2264 26.1528 52.2956 26.2012 52.3541 26.2625C52.4126 26.3237 52.4592 26.3967 52.4913 26.4772C52.5234 26.5577 52.5403 26.6442 52.5411 26.7317L52.5451 26.7446Z" fill="url(#paint2_linear_301_506)"/>
<path d="M58.6208 26.7445V41.5263H57.3611V26.7445C57.3611 26.5661 57.4274 26.395 57.5456 26.2689C57.6637 26.1427 57.8239 26.0719 57.9909 26.0719C58.158 26.0719 58.3182 26.1427 58.4363 26.2689C58.5544 26.395 58.6208 26.5661 58.6208 26.7445Z" fill="url(#paint3_linear_301_506)"/>
<path d="M64.6962 26.7445V41.5263H63.4346V26.7445C63.4346 26.5661 63.5009 26.395 63.619 26.2689C63.7372 26.1427 63.8974 26.0719 64.0644 26.0719C64.2315 26.0719 64.3917 26.1427 64.5098 26.2689C64.6279 26.395 64.6942 26.5661 64.6942 26.7445H64.6962Z" fill="url(#paint4_linear_301_506)"/>
<path d="M70.7721 26.7445V41.5263H69.5125V26.7445C69.5122 26.6565 69.5282 26.5692 69.5595 26.4878C69.5908 26.4063 69.6368 26.3322 69.6949 26.2698C69.753 26.2073 69.8221 26.1577 69.8982 26.1237C69.9742 26.0898 70.0558 26.0721 70.1383 26.0719C70.3054 26.0726 70.4657 26.1425 70.5856 26.2668C70.7046 26.3934 70.7716 26.5652 70.7721 26.7445Z" fill="url(#paint5_linear_301_506)"/>
<path d="M76.8478 26.7445V41.5263H75.5881V26.7445C75.5881 26.5661 75.6545 26.395 75.7726 26.2689C75.8907 26.1427 76.0509 26.0719 76.218 26.0719C76.385 26.0719 76.5452 26.1427 76.6633 26.2689C76.7815 26.395 76.8478 26.5661 76.8478 26.7445Z" fill="url(#paint6_linear_301_506)"/>
<path d="M82.9235 26.7445V41.5263H81.6638V26.7445C81.6633 26.6564 81.6791 26.569 81.7103 26.4874C81.7415 26.4058 81.7875 26.3317 81.8457 26.2691C81.9039 26.2066 81.973 26.157 82.0492 26.1231C82.1254 26.0893 82.2071 26.0719 82.2897 26.0719C82.4568 26.0726 82.6171 26.1425 82.737 26.2668C82.7961 26.3293 82.843 26.4037 82.875 26.4857C82.907 26.5677 82.9235 26.6557 82.9235 26.7445Z" fill="url(#paint7_linear_301_506)"/>
<path d="M88.9992 26.7445V41.5263H87.7395V26.7445C87.7395 26.5661 87.8059 26.395 87.924 26.2689C88.0421 26.1427 88.2023 26.0719 88.3693 26.0719C88.5364 26.0719 88.6966 26.1427 88.8147 26.2689C88.9328 26.395 88.9992 26.5661 88.9992 26.7445Z" fill="url(#paint8_linear_301_506)"/>
<path d="M95.0749 26.7445V41.5263H93.8152V26.7445C93.8152 26.6562 93.8315 26.5687 93.8631 26.4871C93.8948 26.4055 93.9412 26.3313 93.9997 26.2689C94.0582 26.2064 94.1276 26.1569 94.204 26.1231C94.2804 26.0893 94.3623 26.0719 94.445 26.0719C94.5277 26.0719 94.6096 26.0893 94.6861 26.1231C94.7625 26.1569 94.8319 26.2064 94.8904 26.2689C94.9489 26.3313 94.9953 26.4055 95.0269 26.4871C95.0586 26.5687 95.0749 26.6562 95.0749 26.7445Z" fill="url(#paint9_linear_301_506)"/>
<path d="M123.61 56.0274C122.912 56.4387 122.19 56.8393 121.403 56.9678C119.398 57.2956 117.474 55.7853 115.434 55.7724C114.576 55.7823 113.739 56.0528 113.02 56.5525C112.301 57.0522 111.73 57.7602 111.374 58.5938C113.234 58.9559 115.141 58.8895 117.031 58.823L127.493 58.4481C128.257 58.4203 129.116 58.3475 129.609 57.7262C129.922 57.3342 130.011 56.8029 130.211 56.3337C130.548 55.5432 131.172 54.9391 131.615 54.2086C132.107 53.3966 132.618 51.8949 132.299 50.9159C131.848 49.5662 130.63 51.1708 129.948 51.7042C127.925 53.2895 125.808 54.7336 123.61 56.0274Z" fill="#68E1FD"/>
<path d="M123.61 56.0274C122.912 56.4387 122.19 56.8393 121.403 56.9678C119.398 57.2956 117.474 55.7853 115.434 55.7724C114.576 55.7823 113.739 56.0528 113.02 56.5525C112.301 57.0522 111.73 57.7602 111.374 58.5938C113.234 58.9559 115.141 58.8895 117.031 58.823L127.493 58.4481C128.257 58.4203 129.116 58.3475 129.609 57.7262C129.922 57.3342 130.011 56.8029 130.211 56.3337C130.548 55.5432 131.172 54.9391 131.615 54.2086C132.107 53.3966 132.618 51.8949 132.299 50.9159C131.848 49.5662 130.63 51.1708 129.948 51.7042C127.925 53.2895 125.808 54.7336 123.61 56.0274Z" fill="url(#paint10_linear_301_506)"/>
<path d="M133.248 31.012C133.248 31.6247 133.649 32.156 133.76 32.7558C133.914 33.5463 133.577 34.4332 133.94 35.1402C134.341 35.9285 135.344 36.0121 136.124 36.3656C136.721 36.6534 137.218 37.1338 137.545 37.7391C137.873 38.3443 138.014 39.044 137.95 39.7397C137.909 39.9043 137.925 40.079 137.994 40.2324C138.052 40.2974 138.122 40.3488 138.2 40.3831C138.277 40.4174 138.361 40.4339 138.445 40.4316L140.399 40.6458C140.625 40.6949 140.86 40.6718 141.075 40.5794C141.27 40.4401 141.415 40.2349 141.488 39.9967C142.052 38.5528 141.949 36.9183 142.29 35.3951C142.728 33.3771 143.913 31.5925 144.218 29.5467C144.407 28.2513 144.232 26.9252 143.717 25.7355C143.396 24.9986 142.914 24.3002 142.222 23.9638C141.73 23.7603 141.206 23.6578 140.678 23.6618C138.694 23.559 135.966 23.8075 135.418 26.3289C135.236 27.1859 135.362 27.8542 134.839 28.6083C134.315 29.3624 133.254 29.9387 133.248 31.012Z" fill="#965A00"/>
<path d="M134.506 22.4664C134.339 23.7839 135.344 24.9193 136.335 25.7206C137.326 26.5218 140.608 28.1821 140.818 29.2104C141.029 30.2386 140.963 31.3055 140.894 32.3552C141.039 32.9979 141.984 31.1513 142.168 31.0827C142.874 30.5686 143.069 31.3355 143.127 31.614C143.172 31.8866 143.134 32.1676 143.019 32.4152C142.724 33.1886 141.508 35.0524 141.867 36.462C142.952 36.6762 143.281 33.7627 144.274 33.27C145.678 32.578 146.882 31.8946 147.283 30.3029C147.754 28.4156 148.157 26.3097 147.299 24.583C147.17 24.3043 146.987 24.0582 146.761 23.8611C146.561 23.7004 146.33 23.5997 146.122 23.4583C145.554 23.0791 145.197 22.4386 144.776 21.8837C143.768 20.5591 142.355 19.6565 140.786 19.3344C139.462 19.0688 137.837 19.193 136.646 19.9235C135.787 20.4505 134.642 21.3632 134.506 22.4664Z" fill="#3F3D56"/>
<path d="M144.603 63.4998C145.084 62.4624 145.512 61.3983 145.887 60.3121C147.303 55.9804 146.954 51.2459 146.523 46.6807C146.481 45.9881 146.37 45.3023 146.192 44.6348C145.925 43.8535 145.56 43.1141 145.109 42.4368C144.483 41.42 143.827 40.4202 143.143 39.4376C142.968 39.1891 142.77 38.9256 142.487 38.8528C142.285 38.8203 142.079 38.8402 141.885 38.9106L140.236 39.3584C138.764 39.759 137.167 40.2474 136.293 41.5756C133.607 45.646 131.246 50.3076 129.776 55.0378C128.439 59.3495 127.101 63.6619 125.764 67.975C125.239 69.6632 124.743 71.6276 125.646 73.1165C126.711 74.8732 129.056 74.9503 131.005 74.8303L134.476 74.6161C135.936 74.5283 137.549 74.3698 138.559 73.2408C138.868 72.866 139.133 72.4532 139.35 72.0111C141.135 68.6927 143.067 66.9789 144.603 63.4998Z" fill="#68E1FD"/>
<path d="M144.603 63.4998C145.084 62.4624 145.512 61.3983 145.887 60.3121C147.303 55.9804 146.954 51.2459 146.523 46.6807C146.481 45.9881 146.37 45.3023 146.192 44.6348C145.925 43.8535 145.56 43.1141 145.109 42.4368C144.483 41.42 143.827 40.4202 143.143 39.4376C142.968 39.1891 142.77 38.9256 142.487 38.8528C142.285 38.8203 142.079 38.8402 141.885 38.9106L140.236 39.3584C138.764 39.759 137.167 40.2474 136.293 41.5756C133.607 45.646 131.246 50.3076 129.776 55.0378C128.439 59.3495 127.101 63.6619 125.764 67.975C125.239 69.6632 124.743 71.6276 125.646 73.1165C126.711 74.8732 129.056 74.9503 131.005 74.8303L134.476 74.6161C135.936 74.5283 137.549 74.3698 138.559 73.2408C138.868 72.866 139.133 72.4532 139.35 72.0111C141.135 68.6927 143.067 66.9789 144.603 63.4998Z" fill="url(#paint11_linear_301_506)"/>
<path d="M165.927 58.1527H98.8899V102.588H165.927V58.1527Z" fill="#68E1FD"/>
<path d="M165.927 58.1527H98.8899V102.588H165.927V58.1527Z" fill="url(#paint12_linear_301_506)"/>
<path d="M135.789 84.7468C136.09 84.8479 136.407 84.8815 136.72 84.8454C136.543 85.291 137.121 85.683 137.576 85.5909C138.032 85.4988 138.403 85.1624 138.852 85.1132C139.093 85.0896 139.346 85.1474 139.572 85.0532C139.771 84.9506 139.936 84.7853 140.044 84.5797C140.535 83.8042 140.846 82.9152 141.135 82.0368C141.811 80.0359 142.302 77.9515 143.165 76.0384C146.174 69.3588 146.504 59.6349 146.456 58.1139C145.945 58.1311 144.396 58.1868 143.893 58.2832C143.724 58.3023 143.562 58.3664 143.421 58.4695C143.29 58.6013 143.196 58.7698 143.151 58.9558C142.629 60.5626 142.764 62.3128 142.599 64.0052C142.208 68.0584 140.126 71.681 139.081 75.5993C138.632 77.2852 138.373 79.2197 137.302 80.6122C137.053 80.9357 136.622 81.2549 136.455 81.6255C136.233 82.129 136.554 82.3239 136.527 82.8252C136.515 83.0202 135.561 84.6697 135.789 84.7468Z" fill="url(#paint13_linear_301_506)"/>
<path d="M113.34 61.2867C113.87 61.3631 114.41 61.3141 114.92 61.1432C115.429 60.9709 115.958 60.8778 116.491 60.8668C116.926 60.8861 117.448 60.9954 117.729 60.6397C118.096 60.1727 117.666 59.3415 118.056 58.8959C118.152 58.7845 118.286 58.7181 118.383 58.6089C118.436 58.5594 118.47 58.4905 118.478 58.4156C118.486 58.3406 118.468 58.2651 118.427 58.204C118.358 58.1499 118.273 58.1234 118.188 58.129C116.475 58.0297 114.758 58.0612 113.049 58.2232C112.618 58.2639 112.124 58.3496 111.894 58.7438C111.344 59.6779 112.523 61.1111 113.34 61.2867Z" fill="url(#paint14_linear_301_506)"/>
<path d="M111.976 96.1781C111.809 96.1769 111.65 96.1057 111.532 95.9798C111.414 95.8539 111.347 95.6834 111.346 95.5054V65.9568C111.347 65.7788 111.414 65.6083 111.532 65.4824C111.65 65.3565 111.809 65.2853 111.976 65.2842C112.058 65.2839 112.14 65.3009 112.216 65.3344C112.293 65.3678 112.362 65.417 112.421 65.479C112.479 65.5411 112.526 65.6149 112.557 65.6961C112.589 65.7774 112.606 65.8645 112.606 65.9525V95.5161C112.603 95.6925 112.535 95.8605 112.417 95.9842C112.3 96.108 112.141 96.1775 111.976 96.1781Z" fill="url(#paint15_linear_301_506)"/>
<path d="M118.058 96.1781C117.891 96.1769 117.732 96.1057 117.614 95.9798C117.496 95.8539 117.429 95.6834 117.428 95.5054V65.9568C117.429 65.7788 117.496 65.6083 117.614 65.4824C117.732 65.3565 117.891 65.2853 118.058 65.2842C118.14 65.2839 118.222 65.3009 118.298 65.3344C118.374 65.3678 118.444 65.417 118.502 65.479C118.561 65.5411 118.607 65.6149 118.639 65.6961C118.671 65.7774 118.687 65.8645 118.688 65.9525V95.5161C118.685 95.6925 118.617 95.8605 118.499 95.9842C118.381 96.108 118.223 96.1775 118.058 96.1781Z" fill="url(#paint16_linear_301_506)"/>
<path d="M124.134 96.1781C123.967 96.1769 123.807 96.1057 123.689 95.9798C123.571 95.8539 123.505 95.6834 123.504 95.5054V65.9568C123.505 65.7788 123.571 65.6083 123.689 65.4824C123.807 65.3565 123.967 65.2853 124.134 65.2842C124.216 65.2839 124.298 65.3009 124.374 65.3344C124.45 65.3678 124.52 65.417 124.578 65.479C124.637 65.5411 124.683 65.6149 124.715 65.6961C124.747 65.7774 124.763 65.8645 124.763 65.9525V95.5161C124.76 95.6925 124.693 95.8605 124.575 95.9842C124.457 96.108 124.299 96.1775 124.134 96.1781Z" fill="url(#paint17_linear_301_506)"/>
<path d="M130.209 96.1781C130.042 96.1769 129.883 96.1057 129.765 95.9798C129.647 95.8539 129.58 95.6834 129.579 95.5054V65.9568C129.58 65.7788 129.647 65.6083 129.765 65.4824C129.883 65.3565 130.042 65.2853 130.209 65.2842C130.292 65.2839 130.373 65.3009 130.45 65.3344C130.526 65.3678 130.595 65.417 130.654 65.479C130.712 65.5411 130.759 65.6149 130.79 65.6961C130.822 65.7774 130.839 65.8645 130.839 65.9525V95.5161C130.836 95.6925 130.768 95.8605 130.65 95.9842C130.533 96.108 130.374 96.1775 130.209 96.1781Z" fill="url(#paint18_linear_301_506)"/>
<path d="M136.285 96.1781C136.118 96.177 135.959 96.1057 135.841 95.9798C135.723 95.8539 135.656 95.6835 135.655 95.5054V65.9568C135.655 65.8688 135.671 65.7815 135.702 65.7001C135.733 65.6186 135.779 65.5445 135.837 65.4821C135.896 65.4196 135.965 65.37 136.041 65.336C136.117 65.3021 136.198 65.2844 136.281 65.2841C136.448 65.2853 136.607 65.3565 136.725 65.4824C136.843 65.6083 136.91 65.7788 136.911 65.9568V95.5054C136.91 95.6827 136.844 95.8525 136.726 95.9783C136.609 96.1041 136.451 96.1758 136.285 96.1781Z" fill="url(#paint19_linear_301_506)"/>
<path d="M142.36 96.1781C142.194 96.177 142.034 96.1057 141.916 95.9798C141.798 95.8539 141.732 95.6835 141.73 95.5054V65.9568C141.73 65.8688 141.746 65.7815 141.777 65.7001C141.809 65.6186 141.855 65.5445 141.913 65.4821C141.971 65.4196 142.04 65.37 142.116 65.336C142.192 65.3021 142.274 65.2844 142.356 65.2841C142.523 65.2853 142.683 65.3565 142.8 65.4824C142.918 65.6083 142.985 65.7788 142.986 65.9568V95.5054C142.985 95.6827 142.919 95.8525 142.802 95.9783C142.685 96.1041 142.526 96.1758 142.36 96.1781Z" fill="url(#paint20_linear_301_506)"/>
<path d="M148.436 96.1781C148.27 96.177 148.11 96.1057 147.992 95.9798C147.874 95.8539 147.807 95.6835 147.806 95.5054V65.9568C147.806 65.8688 147.822 65.7815 147.853 65.7001C147.885 65.6186 147.931 65.5445 147.989 65.4821C148.047 65.4196 148.116 65.37 148.192 65.336C148.268 65.3021 148.35 65.2844 148.432 65.2841C148.599 65.2853 148.759 65.3565 148.876 65.4824C148.994 65.6083 149.061 65.7788 149.062 65.9568V95.5054C149.061 95.6827 148.995 95.8525 148.878 95.9783C148.761 96.1041 148.602 96.1758 148.436 96.1781Z" fill="url(#paint21_linear_301_506)"/>
<path d="M154.512 65.2841C154.679 65.2853 154.838 65.3565 154.956 65.4824C155.074 65.6083 155.141 65.7788 155.142 65.9568V95.5054C155.141 95.6835 155.074 95.8539 154.956 95.9798C154.838 96.1057 154.679 96.177 154.512 96.1781C154.345 96.177 154.186 96.1057 154.068 95.9798C153.95 95.8539 153.883 95.6835 153.882 95.5054V65.9568C153.883 65.7788 153.95 65.6083 154.068 65.4824C154.186 65.3565 154.345 65.2853 154.512 65.2841Z" fill="url(#paint22_linear_301_506)"/>
<path d="M138.252 54.8728C138.035 60.7283 137.615 66.5675 136.995 72.3902C136.872 73.5514 136.744 74.7468 137.039 75.8715C137.159 76.3342 137.44 77.641 137.727 78.0137C138.128 78.5557 138.616 78.0909 139.257 78.1637C140.214 78.273 140.571 78.8557 141.129 78.018C141.686 77.1804 142.499 74.946 142.734 73.9477C144.486 66.0748 144.971 57.9408 144.168 49.8941C144.041 48.6216 143.873 47.3233 143.329 46.1836C142.786 45.0439 141.791 44.0713 140.599 43.9278C138.756 43.7136 137.649 45.3738 137.791 47.0984C138.016 49.7441 138.347 52.197 138.252 54.8728Z" fill="#68E1FD"/>
<path d="M112.295 57.5806C112.095 57.6827 111.924 57.8394 111.8 58.0348C111.711 58.2237 111.66 58.4301 111.649 58.6411C111.559 59.4466 111.475 60.3056 111.81 61.034C111.828 61.0856 111.861 61.1298 111.904 61.1604C111.947 61.1755 111.993 61.1755 112.036 61.1604C112.115 61.1361 112.188 61.0935 112.25 61.0358C112.313 60.9781 112.362 60.9065 112.395 60.8262C112.46 60.6647 112.502 60.4934 112.518 60.3185C112.622 59.6137 112.718 58.9067 112.829 58.1998C112.7 58.6782 112.656 59.178 112.698 59.6737C112.742 60.1724 112.941 60.6412 113.262 61.0062C113.315 61.0723 113.384 61.1207 113.462 61.1454C113.663 61.1861 113.807 60.9655 113.888 60.7705C114.201 60.0145 114.343 59.1902 114.301 58.3647C114.207 59.1755 114.347 59.9976 114.702 60.7212C114.734 60.7921 114.779 60.856 114.832 60.9098C114.94 60.9833 115.068 61.0164 115.195 61.004C115.317 61.0216 115.441 60.9928 115.545 60.9226C115.614 60.8533 115.662 60.7639 115.685 60.6655C115.904 59.96 115.988 59.2148 115.932 58.474C115.99 59.2766 116.142 60.0683 116.385 60.8305C116.417 60.9781 116.491 61.1114 116.598 61.2118C116.703 61.2735 116.827 61.2911 116.944 61.261C117.061 61.2309 117.164 61.1553 117.231 61.049C117.362 60.8309 117.432 60.5774 117.432 60.3185C117.462 59.98 117.33 59.6287 117.42 59.303C118.395 55.7833 112.931 57.1907 112.295 57.5806Z" fill="#965A00"/>
<path d="M135.727 81.0858C135.396 81.2465 135.003 81.5379 135.095 81.9128C135.168 82.2041 135.509 82.3219 135.787 82.277C136.066 82.232 136.321 82.0799 136.59 82.0285C136.643 82.0118 136.699 82.0085 136.753 82.0189C136.807 82.0294 136.859 82.0531 136.903 82.0884C136.949 82.1452 136.979 82.2152 136.989 82.2898C137.081 82.8104 136.82 83.3245 136.52 83.7466C136.219 84.1686 135.866 84.5671 135.717 85.0726C136.074 85.2654 136.506 85.0319 136.792 84.7342C137.079 84.4364 137.312 84.0615 137.671 83.8772L136.748 85.6339C136.664 85.7924 136.584 86.0045 136.694 86.1438C136.843 86.3302 137.121 86.1609 137.282 85.9874C137.758 85.471 138.186 84.9072 138.562 84.3036C138.281 84.9074 138.105 85.5606 138.042 86.2316C138.321 86.2637 138.519 85.966 138.656 85.7046L139.458 84.1472C139.45 84.6287 139.34 85.102 139.135 85.5311C139.554 85.4347 139.755 84.9377 139.891 84.5049C140.269 83.3138 140.65 82.0884 140.599 80.8309C140.589 80.5567 140.539 80.2461 140.323 80.0961C140.182 80.0165 140.024 79.9808 139.865 79.9933C138.297 79.9697 137.153 80.3917 135.727 81.0858Z" fill="#965A00"/>
<path d="M137.609 78.3523C137.637 78.1643 137.715 77.9888 137.833 77.8467C138.007 77.7077 138.218 77.6325 138.435 77.6325L139.971 77.444C140.355 77.3969 140.826 77.3926 141.035 77.7418C141.129 77.94 141.161 78.1652 141.127 78.3845C141.091 78.94 140.994 79.4893 140.84 80.0212C140.798 80.1604 138.25 80.4368 138.02 80.3746C137.143 80.124 137.398 79.2671 137.609 78.3523Z" fill="#68E1FD"/>
<path d="M137.609 78.3523C137.637 78.1643 137.715 77.9888 137.833 77.8467C138.007 77.7077 138.218 77.6325 138.435 77.6325L139.971 77.444C140.355 77.3969 140.826 77.3926 141.035 77.7418C141.129 77.94 141.161 78.1652 141.127 78.3845C141.091 78.94 140.994 79.4893 140.84 80.0212C140.798 80.1604 138.25 80.4368 138.02 80.3746C137.143 80.124 137.398 79.2671 137.609 78.3523Z" fill="url(#paint23_linear_301_506)"/>
<path d="M121.893 102.588L117.211 119.418H121.444L130.257 102.588H121.893Z" fill="#68E1FD"/>
<path d="M142.469 102.588L147.152 119.418H142.92L134.104 102.588H142.469Z" fill="#68E1FD"/>
<path d="M121.213 122.968C120.812 123.077 120.387 123.182 119.991 123.056C119.596 122.929 119.267 122.464 119.418 122.036C118.463 122.304 117.578 122.816 116.624 123.083C115.059 123.525 113.414 123.298 111.81 123.058C111.948 122.47 112.199 121.919 112.547 121.44C112.895 120.96 113.331 120.563 113.829 120.273C114.832 119.699 115.998 119.596 117.129 119.506L119.301 119.332C119.737 119.298 120.677 119.015 121.057 119.345C121.436 119.675 121.466 122.893 121.213 122.968Z" fill="#68E1FD"/>
<path d="M147.279 122.968C146.878 123.077 146.45 123.182 146.055 123.055C145.66 122.929 145.325 122.464 145.473 122.036C144.517 122.303 143.632 122.815 142.677 123.083C141.113 123.525 139.468 123.297 137.863 123.058C138.002 122.469 138.253 121.918 138.601 121.439C138.949 120.96 139.386 120.563 139.885 120.273C140.888 119.698 142.051 119.596 143.183 119.506L145.343 119.334C145.78 119.3 146.721 119.017 147.098 119.347C147.475 119.677 147.515 122.893 147.279 122.968Z" fill="#68E1FD"/>
<path d="M121.893 102.588L117.211 119.418H121.444L130.257 102.588H121.893Z" fill="url(#paint24_linear_301_506)"/>
<path d="M142.469 102.588L147.152 119.418H142.92L134.104 102.588H142.469Z" fill="url(#paint25_linear_301_506)"/>
<path d="M121.213 122.968C120.812 123.077 120.387 123.182 119.991 123.056C119.596 122.929 119.267 122.464 119.418 122.036C118.463 122.304 117.578 122.816 116.624 123.083C115.059 123.525 113.414 123.298 111.81 123.058C111.948 122.47 112.199 121.919 112.547 121.44C112.895 120.96 113.331 120.563 113.829 120.273C114.832 119.699 115.998 119.596 117.129 119.506L119.301 119.332C119.737 119.298 120.677 119.015 121.057 119.345C121.436 119.675 121.466 122.893 121.213 122.968Z" fill="url(#paint26_linear_301_506)"/>
<path d="M147.279 122.968C146.878 123.077 146.45 123.182 146.055 123.055C145.66 122.929 145.325 122.464 145.473 122.036C144.517 122.303 143.632 122.815 142.677 123.083C141.113 123.525 139.468 123.297 137.863 123.058C138.002 122.469 138.253 121.918 138.601 121.439C138.949 120.96 139.386 120.563 139.885 120.273C140.888 119.698 142.051 119.596 143.183 119.506L145.343 119.334C145.78 119.3 146.721 119.017 147.098 119.347C147.475 119.677 147.515 122.893 147.279 122.968Z" fill="url(#paint27_linear_301_506)"/>
</g>
<defs>
<linearGradient id="paint0_linear_301_506" x1="72270.7" y1="32218" x2="-18254.9" y2="35366.8" gradientUnits="userSpaceOnUse">
<stop offset="0.01"/>
<stop offset="0.1" stop-opacity="0.77"/>
<stop offset="0.97" stop-opacity="0"/>
</linearGradient>
<linearGradient id="paint1_linear_301_506" x1="42612.3" y1="-1562.27" x2="34390" y2="-31144.3" gradientUnits="userSpaceOnUse">
<stop offset="0.01"/>
<stop offset="0.1" stop-opacity="0.77"/>
<stop offset="0.97" stop-opacity="0"/>
</linearGradient>
<linearGradient id="paint2_linear_301_506" x1="60.5043" y1="33.1436" x2="47.0822" y2="34.0739" gradientUnits="userSpaceOnUse">
<stop offset="0.01" stop-color="white"/>
<stop offset="0.97" stop-color="white" stop-opacity="0"/>
</linearGradient>
<linearGradient id="paint3_linear_301_506" x1="66.5799" y1="33.1436" x2="53.1579" y2="34.0738" gradientUnits="userSpaceOnUse">
<stop offset="0.01" stop-color="white"/>
<stop offset="0.97" stop-color="white" stop-opacity="0"/>
</linearGradient>
<linearGradient id="paint4_linear_301_506" x1="72.6681" y1="33.1436" x2="59.2248" y2="34.0768" gradientUnits="userSpaceOnUse">
<stop offset="0.01" stop-color="white"/>
<stop offset="0.97" stop-color="white" stop-opacity="0"/>
</linearGradient>
<linearGradient id="paint5_linear_301_506" x1="78.7313" y1="33.1436" x2="65.3092" y2="34.0738" gradientUnits="userSpaceOnUse">
<stop offset="0.01" stop-color="white"/>
<stop offset="0.97" stop-color="white" stop-opacity="0"/>
</linearGradient>
<linearGradient id="paint6_linear_301_506" x1="84.807" y1="33.1436" x2="71.3849" y2="34.0738" gradientUnits="userSpaceOnUse">
<stop offset="0.01" stop-color="white"/>
<stop offset="0.97" stop-color="white" stop-opacity="0"/>
</linearGradient>
<linearGradient id="paint7_linear_301_506" x1="90.8828" y1="33.1436" x2="77.4605" y2="34.0739" gradientUnits="userSpaceOnUse">
<stop offset="0.01" stop-color="white"/>
<stop offset="0.97" stop-color="white" stop-opacity="0"/>
</linearGradient>
<linearGradient id="paint8_linear_301_506" x1="96.9583" y1="33.1436" x2="83.5363" y2="34.0738" gradientUnits="userSpaceOnUse">
<stop offset="0.01" stop-color="white"/>
<stop offset="0.97" stop-color="white" stop-opacity="0"/>
</linearGradient>
<linearGradient id="paint9_linear_301_506" x1="103.034" y1="33.1436" x2="89.612" y2="34.0738" gradientUnits="userSpaceOnUse">
<stop offset="0.01" stop-color="white"/>
<stop offset="0.97" stop-color="white" stop-opacity="0"/>
</linearGradient>
<linearGradient id="paint10_linear_301_506" x1="12829.6" y1="4067.17" x2="12827.2" y2="3603.9" gradientUnits="userSpaceOnUse">
<stop offset="0.01"/>
<stop offset="0.1" stop-opacity="0.77"/>
<stop offset="0.97" stop-opacity="0"/>
</linearGradient>
<linearGradient id="paint11_linear_301_506" x1="14789.7" y1="18655.9" x2="14959" y2="13344.2" gradientUnits="userSpaceOnUse">
<stop offset="0.01"/>
<stop offset="0.1" stop-opacity="0.77"/>
<stop offset="0.97" stop-opacity="0"/>
</linearGradient>
<linearGradient id="paint12_linear_301_506" x1="46077.7" y1="16287.3" x2="44001.7" y2="36096.3" gradientUnits="userSpaceOnUse">
<stop offset="0.03" stop-color="#87E7FD"/>
<stop offset="0.09" stop-color="white" stop-opacity="0.84"/>
<stop offset="0.18" stop-color="white" stop-opacity="0.64"/>
<stop offset="0.28" stop-color="white" stop-opacity="0.47"/>
<stop offset="0.37" stop-color="white" stop-opacity="0.33"/>
<stop offset="0.47" stop-color="white" stop-opacity="0.21"/>
<stop offset="0.58" stop-color="white" stop-opacity="0.12"/>
<stop offset="0.69" stop-color="white" stop-opacity="0.05"/>
<stop offset="0.82" stop-color="white" stop-opacity="0.01"/>
<stop offset="0.98" stop-color="white" stop-opacity="0"/>
</linearGradient>
<linearGradient id="paint13_linear_301_506" x1="7347.04" y1="8546.36" x2="7918.56" y2="8546.36" gradientUnits="userSpaceOnUse">
<stop offset="0.01"/>
<stop offset="0.1" stop-opacity="0.77"/>
<stop offset="0.97" stop-opacity="0"/>
</linearGradient>
<linearGradient id="paint14_linear_301_506" x1="3857.08" y1="608.34" x2="3885.59" y2="941.814" gradientUnits="userSpaceOnUse">
<stop offset="0.01"/>
<stop offset="0.1" stop-opacity="0.77"/>
<stop offset="0.97" stop-opacity="0"/>
</linearGradient>
<linearGradient id="paint15_linear_301_506" x1="809.682" y1="-13181.8" x2="2082.1" y2="2792" gradientUnits="userSpaceOnUse">
<stop offset="0.01" stop-color="white"/>
<stop offset="0.97" stop-color="white" stop-opacity="0"/>
</linearGradient>
<linearGradient id="paint16_linear_301_506" x1="854.027" y1="-12367.5" x2="2126.45" y2="3606.36" gradientUnits="userSpaceOnUse">
<stop offset="0.01" stop-color="white"/>
<stop offset="0.97" stop-color="white" stop-opacity="0"/>
</linearGradient>
<linearGradient id="paint17_linear_301_506" x1="898.269" y1="-12370.3" x2="2170.68" y2="3603.27" gradientUnits="userSpaceOnUse">
<stop offset="0.01" stop-color="white"/>
<stop offset="0.97" stop-color="white" stop-opacity="0"/>
</linearGradient>
<linearGradient id="paint18_linear_301_506" x1="942.489" y1="-12373.4" x2="2214.92" y2="3600.18" gradientUnits="userSpaceOnUse">
<stop offset="0.01" stop-color="white"/>
<stop offset="0.97" stop-color="white" stop-opacity="0"/>
</linearGradient>
<linearGradient id="paint19_linear_301_506" x1="984.001" y1="-12376.4" x2="2260.44" y2="3596.45" gradientUnits="userSpaceOnUse">
<stop offset="0.01" stop-color="white"/>
<stop offset="0.97" stop-color="white" stop-opacity="0"/>
</linearGradient>
<linearGradient id="paint20_linear_301_506" x1="1028.09" y1="-12379.5" x2="2297.1" y2="3594.55" gradientUnits="userSpaceOnUse">
<stop offset="0.01" stop-color="white"/>
<stop offset="0.97" stop-color="white" stop-opacity="0"/>
</linearGradient>
<linearGradient id="paint21_linear_301_506" x1="1072.21" y1="-12382.6" x2="2341.2" y2="3591.77" gradientUnits="userSpaceOnUse">
<stop offset="0.01" stop-color="white"/>
<stop offset="0.97" stop-color="white" stop-opacity="0"/>
</linearGradient>
<linearGradient id="paint22_linear_301_506" x1="1119.39" y1="-12385.7" x2="2391.83" y2="3588.13" gradientUnits="userSpaceOnUse">
<stop offset="0.01" stop-color="white"/>
<stop offset="0.97" stop-color="white" stop-opacity="0"/>
</linearGradient>
<linearGradient id="paint23_linear_301_506" x1="2761.64" y1="971.654" x2="2728.53" y2="1119.18" gradientUnits="userSpaceOnUse">
<stop offset="0.01"/>
<stop offset="0.1" stop-opacity="0.77"/>
<stop offset="0.97" stop-opacity="0"/>
</linearGradient>
<linearGradient id="paint24_linear_301_506" x1="8432.47" y1="10447.5" x2="6773.1" y2="14450.9" gradientUnits="userSpaceOnUse">
<stop offset="0.01"/>
<stop offset="0.1" stop-opacity="0.77"/>
<stop offset="0.97" stop-opacity="0"/>
</linearGradient>
<linearGradient id="paint25_linear_301_506" x1="8974.51" y1="10197.6" x2="10236.4" y2="14606" gradientUnits="userSpaceOnUse">
<stop offset="0.01"/>
<stop offset="0.1" stop-opacity="0.77"/>
<stop offset="0.97" stop-opacity="0"/>
</linearGradient>
<linearGradient id="paint26_linear_301_506" x1="5628.12" y1="2939.65" x2="5636.3" y2="3745.62" gradientUnits="userSpaceOnUse">
<stop offset="0.01"/>
<stop offset="0.1" stop-opacity="0.77"/>
<stop offset="0.97" stop-opacity="0"/>
</linearGradient>
<linearGradient id="paint27_linear_301_506" x1="6892.92" y1="2925.54" x2="6901.1" y2="3731.09" gradientUnits="userSpaceOnUse">
<stop offset="0.01"/>
<stop offset="0.1" stop-opacity="0.77"/>
<stop offset="0.97" stop-opacity="0"/>
</linearGradient>
<clipPath id="clip0_301_506">
<rect width="165.275" height="133.041" fill="white" transform="translate(0.651855 0.133957)"/>
</clipPath>
</defs>
</svg>
